<?xml version="1.0" standalone="no"?>
<!DOCTYPE svg PUBLIC "-//W3C//DTD SVG 1.1//EN" "http://www.w3.org/Graphics/SVG/1.1/DTD/svg11.dtd" >
<svg xmlns="http://www.w3.org/2000/svg">
<metadata></metadata>
<defs>
<font id="kiddy_kittylight" horiz-adv-x="1196" >
<font-face units-per-em="2048" ascent="1536" descent="-512" />
<missing-glyph horiz-adv-x="626" />
<glyph horiz-adv-x="2048" />
<glyph horiz-adv-x="2048" />
<glyph unicode="&#xd;" horiz-adv-x="2048" />
<glyph unicode=" "  horiz-adv-x="626" />
<glyph unicode="&#x09;" horiz-adv-x="626" />
<glyph unicode="&#xa0;" horiz-adv-x="626" />
<glyph unicode="!" horiz-adv-x="630" d="M139 115q0 64 42 108.5t98 44.5t98.5 -44.5t42.5 -108.5q0 -60 -43 -104t-98 -44q-56 0 -98 43.5t-42 104.5zM141 1444q115 17 173.5 16.5t177.5 -14.5l-115 -1006q-44 -12 -59.5 -15t-52 -7t-60.5 2z" />
<glyph unicode="&#x22;" horiz-adv-x="811" d="M117 1425q18 29 74 42.5t108 8t63 -25.5l-63 -473q-1 -12 -43.5 -18t-84 3t-38.5 33zM457 1040l30 385q18 28 72.5 42t100.5 8.5t45 -25.5l-60 -422q-2 -12 -50 -19.5t-94.5 0t-43.5 31.5z" />
<glyph unicode="#" horiz-adv-x="1691" d="M45 459.5q2 68.5 31 103.5h280l60 371h-289q-29 24 -26.5 90t32.5 102h311l50 310q32 8 99.5 11.5t102.5 -9.5l-47 -312h385l49 310q39 25 106.5 25t94.5 -23l-47 -312h319q20 -16 28 -57.5t-1 -82t-33 -52.5h-342l-55 -371h346q28 -31 23.5 -100.5t-33.5 -87.5h-365 l-57 -383q-31 -18 -108 -16t-103 18l59 381h-376l-58 -383q-1 -7 -46 -11t-97.5 -1t-69.5 14l60 381h-262q-23 16 -21 84.5zM565 563h381l58 371h-383z" />
<glyph unicode="$" horiz-adv-x="989" d="M115 88q-14 48 14 118t74 113q72 -72 130.5 -102.5t143.5 -30.5q93 0 142 51.5t49 124.5q0 49 -15.5 88.5t-49 70.5t-65 52t-83.5 48l-72 38q-57 32 -95 59.5t-77 69.5t-58.5 98t-19.5 126q0 132 80.5 215.5t232.5 95.5l-24 215q24 7 96 6.5t103 -10.5l-21 -213 q144 -15 285 -82q3 -64 -21 -125.5t-71 -75.5q-143 97 -287 97q-87 0 -134.5 -32.5t-47.5 -94.5q0 -28 11.5 -54.5t27 -45t45 -40.5t50 -34.5t56.5 -32.5q43 -25 64 -37.5t59.5 -37t58 -39.5t49.5 -40.5t46 -45.5t35.5 -48.5t29 -56t16.5 -61t7 -70.5q0 -58 -21 -114.5 t-60.5 -107t-104 -87.5t-144.5 -50l24 -205q-49 -28 -102 -26t-104 26l28 203q-173 21 -280 84z" />
<glyph unicode="%" horiz-adv-x="1714" d="M123 1163q15 143 116.5 225.5t260.5 81.5q150 -1 228.5 -91t72.5 -228q-8 -171 -97 -271.5t-247 -99.5q-97 1 -168 32.5t-108.5 85.5t-52 121t-5.5 144zM199 45l1069 1432q9 10 51 -11t80.5 -53.5t38.5 -50.5l-1055 -1432q-30 -13 -102 35t-82 80zM289 1147 q-10 -102 30.5 -154t135.5 -63q67 -9 120.5 45.5t65.5 140.5q19 194 -156 211q-78 6 -132.5 -43.5t-63.5 -136.5zM918 356q14 143 114.5 226t259.5 82q150 -1 228.5 -91.5t72.5 -228.5q-6 -171 -96 -271.5t-248 -99.5q-97 1 -167.5 32.5t-108 85.5t-51.5 121t-4 144z M1083 332q-10 -100 29.5 -149t134.5 -60q68 -9 121.5 45.5t65.5 140.5q11 93 -26.5 143.5t-131.5 57.5q-77 8 -130.5 -41t-62.5 -137z" />
<glyph unicode="&#x26;" horiz-adv-x="1560" d="M84 311q0 115 66.5 225t166.5 197q-122 192 -122 346q0 92 33 165.5t89.5 119t128.5 70t152 24.5q165 0 255.5 -81t90.5 -224q0 -222 -340 -444q106 -134 285 -275q48 101 80 271l444 71q11 -16 -14.5 -102t-52.5 -90l-242 -6q-15 -60 -45 -128t-60 -114 q194 -154 469 -346q-35 -25 -139.5 -41.5t-171.5 0.5q-170 119 -285 209q-89 -100 -188.5 -144.5t-243.5 -44.5q-171 0 -263.5 86.5t-92.5 255.5zM272 338q0 -69 21.5 -119.5t56 -75.5t68 -36t67.5 -11q138 0 281 158q-219 186 -379 379q-53 -72 -84 -153.5t-31 -141.5z M373 1092q0 -115 147 -297q37 28 72.5 60.5t78.5 80.5t69 104t26 109q0 89 -55.5 129.5t-135.5 40.5q-87 0 -144.5 -60.5t-57.5 -166.5z" />
<glyph unicode="'" horiz-adv-x="503" d="M119 1425q18 29 75.5 42.5t109.5 8t58 -25.5l-63 -475q-2 -7 -20 -12t-42.5 -6t-48 1.5t-39.5 12t-14 24.5z" />
<glyph unicode="(" horiz-adv-x="675" d="M127 500q0 322 117.5 594t292.5 393q66 -32 96 -96q-299 -336 -299 -877q0 -293 52.5 -519t191.5 -423q-30 -72 -136 -84q-133 140 -224 406.5t-91 605.5z" />
<glyph unicode=")" horiz-adv-x="655" d="M43 -399q128 110 204.5 367.5t76.5 551.5q0 308 -68 532.5t-168 325.5q12 35 46.5 57.5t72.5 24.5q143 -126 232 -362.5t89 -589.5q0 -257 -47.5 -453.5t-131 -328.5t-210.5 -234q-89 17 -96 109z" />
<glyph unicode="*" horiz-adv-x="952" d="M76 1171q-13 24 10.5 78t66.5 102t80 56l156 -129l-67 -182zM90 948l174 121l148 -123l-152 -219q-38 -4 -80.5 36t-68 94t-21.5 91zM414 879l153 129l181 -189q0 -32 -41.5 -67t-100 -51.5t-100.5 -0.5zM424 1477q32 28 131.5 8.5t130.5 -60.5l-63 -213l-187 9z M580 1147l241 121q31 -15 46 -68t11 -108.5t-22 -83.5l-211 -35z" />
<glyph unicode="+" horiz-adv-x="1247" d="M172 834l344 -9l-24 357q1 19 93 19.5t126 -15.5l-31 -363l354 17q25 -14 40 -85.5t-7 -101.5l-375 2l27 -350q-8 -20 -102 -23t-103 19l10 352l-309 -14q-17 1 -36.5 96.5t-6.5 98.5z" />
<glyph unicode="," horiz-adv-x="610" d="M104 162q0 76 57.5 129t131.5 53q80 0 146.5 -67t66.5 -179q0 -117 -65 -244.5t-171 -228.5q-47 -8 -83 16.5t-46 59.5q132 100 174 276q-59 -10 -103 5.5t-66 48t-32 65.5t-10 66z" />
<glyph unicode="-" horiz-adv-x="747" d="M160 537.5q-1 44.5 8 95.5l410 16q11 -46 10 -90.5t-21 -95.5l-389 -21q-17 51 -18 95.5z" />
<glyph unicode="." horiz-adv-x="608" d="M104 150q0 75 59.5 131.5t141.5 56.5q81 0 140 -57t59 -131q0 -76 -59 -132.5t-140 -56.5q-82 0 -141.5 57t-59.5 132z" />
<glyph unicode="/" horiz-adv-x="919" d="M-104 -436l802 1980q10 9 41.5 2t73.5 -30t59 -46l-796 -1964q-25 -13 -99.5 8.5t-80.5 49.5z" />
<glyph unicode="0" horiz-adv-x="1304" d="M121 719q0 108 20 213.5t64 205.5t108 176t158.5 122t208.5 47q258 1 380 -188t122 -533q0 -235 -60 -414t-184 -284t-297 -105q-147 0 -247 44.5t-160.5 141t-86.5 235.5t-26 339zM354 723q0 -79 4 -140t14.5 -126t31 -111.5t51.5 -84.5t78.5 -57.5t109.5 -19.5 q69 0 123 31.5t89 84t58.5 127t33 155.5t9.5 174q0 71 -2.5 124t-10 108.5t-20.5 95t-34.5 75.5t-52 58t-73.5 34.5t-97 12.5q-104 0 -176 -74.5t-104 -194t-32 -272.5z" />
<glyph unicode="1" horiz-adv-x="823" d="M26 85.5q0 80.5 19 98.5l234 -12l53 1024l-135 -166q-41 6 -87 65t-51 97l336 295q49 -4 84.5 -32t50.5 -71l-30 -1226l272 -13q12 -31 2 -79t-31 -66l-702 -2q-15 7 -15 87.5z" />
<glyph unicode="2" horiz-adv-x="1054" d="M51 1307q118 90 236.5 133t290.5 43q92 0 163.5 -33t113.5 -88.5t63.5 -123t21.5 -142.5t-20 -151t-50.5 -140.5t-81.5 -133.5t-99 -123.5t-117 -118.5t-122.5 -109t-127.5 -105l593 61q38 -48 31 -140.5t-45 -135.5l-848 -6l15 213q355 312 507 509.5t152 348.5 q0 121 -53.5 172t-155.5 51q-45 0 -91 -14t-93.5 -43t-81.5 -54t-84 -65q-28 5 -77 84t-40 111z" />
<glyph unicode="3" horiz-adv-x="1081" d="M55 80q2 51 30 112.5t65 88.5q57 -38 92.5 -58t100 -39.5t132.5 -19.5q130 0 213.5 69.5t83.5 198.5q0 92 -62 157t-156 93t-208 27l-45 110l447 447l-562 -29q-40 26 -46 97.5t24 107.5l803 12q22 -141 26 -168l-469 -436q213 -13 343 -130t130 -327q0 -79 -32 -150 t-83 -121.5t-114 -88t-126 -56t-118 -18.5q-269 0 -469 121z" />
<glyph unicode="4" horiz-adv-x="1228" d="M57 664l656 823l231 -10l-16 -807l229 16q25 -43 20 -107.5t-30 -105.5l-252 2v-481q-26 -15 -114 -18.5t-119 16.5l38 477l-567 -2zM307 649l420 6l27 648z" />
<glyph unicode="5" horiz-adv-x="1073" d="M31 80q0 48 30.5 111t69.5 90q60 -40 92.5 -59t97 -39.5t130.5 -20.5q127 0 200.5 67.5t73.5 188.5q0 78 -27 133.5t-72 89t-119.5 53t-153 26t-189.5 7.5l24 717h785q33 -68 10.5 -136.5t-78.5 -99.5l-504 31l-6 -336q255 2 406 -121t151 -342q0 -90 -29 -169 t-76.5 -135t-107.5 -97t-122.5 -60.5t-120.5 -19.5q-154 0 -262.5 32t-202.5 89z" />
<glyph unicode="6" horiz-adv-x="1187" d="M121 596q0 183 60 342.5t163.5 272t246.5 177t304 64.5q68 0 162 -16q29 -35 27 -91t-27 -94q-29 6 -109 6q-237 0 -405.5 -140.5t-196.5 -356.5q6 5 37.5 30t41 31.5t38 25.5t47 25.5t48.5 17t62 14t70 3.5q199 0 303.5 -130t104.5 -349q0 -86 -37.5 -170.5 t-101.5 -150.5t-156 -107t-193 -41q-110 0 -193.5 29.5t-139 82.5t-91 133t-50.5 176t-15 216zM350 473q0 -61 15.5 -115t46 -98.5t82.5 -71t120 -26.5q109 0 181.5 79.5t72.5 223.5q0 123 -73.5 190.5t-188.5 67.5q-51 0 -128.5 -31.5t-106.5 -58.5q-21 -75 -21 -160z" />
<glyph unicode="7" horiz-adv-x="964" d="M115 1444h805l43 -146q-142 -172 -241 -343t-154 -337t-80.5 -317.5t-30.5 -320.5q-49 -29 -84 -29q-55 0 -103 21t-57 51q19 205 97 443.5t193 446.5t236 320q-563 -45 -606 -49q-72 125 -18 260z" />
<glyph unicode="8" horiz-adv-x="1124" d="M96 348q0 117 72 208t215 192q-99 78 -152 162t-53 198q0 99 68.5 186t168.5 135t197 48q105 0 185 -31t126 -84t68.5 -115t22.5 -131q0 -132 -67.5 -223t-215.5 -162q54 -35 90.5 -62t79 -66.5t67.5 -76.5t42.5 -86.5t17.5 -103.5q0 -148 -135 -261.5t-326 -113.5 q-94 0 -177 23.5t-149.5 69t-105.5 121.5t-39 173zM293 373q0 -98 79 -158.5t193 -60.5q102 0 165 57t63 139q0 75 -70.5 145t-192.5 144l-41 23q-97 -71 -146.5 -140.5t-49.5 -148.5zM383 1094q0 -128 250 -293q83 41 132.5 112t49.5 148q0 99 -51.5 164t-165.5 65 q-97 0 -156 -61.5t-59 -134.5z" />
<glyph unicode="9" horiz-adv-x="1189" d="M92 995q0 120 63 228.5t177 176.5t250 68q113 0 197.5 -29.5t139 -82.5t88 -134.5t47 -176.5t13.5 -218q0 -189 -73.5 -350t-198.5 -268.5t-296 -165.5t-362 -51q-31 33 -28 90.5t28 93.5q289 27 472.5 148t238.5 329q-13 -8 -52.5 -34.5t-61 -38t-60 -29t-80.5 -24.5 t-92 -7q-198 0 -304 126t-106 349zM317 956q0 -120 75 -188t190 -68q44 0 124.5 33t110.5 58q21 79 21 161q0 138 -69 219.5t-196 81.5q-112 0 -184 -78.5t-72 -218.5z" />
<glyph unicode=":" horiz-adv-x="569" d="M104 121q0 65 50.5 114.5t115.5 49.5t115.5 -49.5t50.5 -114.5q0 -64 -50.5 -112t-115.5 -48t-115.5 48t-50.5 112zM131 877q0 64 50.5 112.5t115.5 48.5t115.5 -48.5t50.5 -112.5q0 -65 -50.5 -113.5t-115.5 -48.5t-115.5 48.5t-50.5 113.5z" />
<glyph unicode=";" horiz-adv-x="587" d="M104 131q0 67 51 116.5t119 49.5q73 0 132 -61t59 -166q0 -107 -51 -213t-142 -197q-40 -10 -74.5 13.5t-41.5 54.5q62 47 91.5 102t49.5 137q-54 -8 -94.5 5.5t-60.5 41.5t-29 57.5t-9 59.5zM152 874q0 66 49 115t114 49q66 0 116 -49t50 -115q0 -64 -50.5 -111.5 t-115.5 -47.5t-114 47.5t-49 111.5z" />
<glyph unicode="&#x3c;" horiz-adv-x="1093" d="M47 662l907 602q43 -10 73 -59.5t30 -98.5l-709 -432l711 -506q-9 -145 -96 -145z" />
<glyph unicode="=" horiz-adv-x="1308" d="M243.5 439.5q-1.5 31.5 10.5 88.5l786 17q13 -52 12.5 -85t-22.5 -85l-766 -21q-19 54 -20.5 85.5zM243.5 778.5q-1.5 29.5 10.5 89.5l786 17q13 -51 12 -85t-22 -85l-766 -21q-19 55 -20.5 84.5z" />
<glyph unicode="&#x3e;" horiz-adv-x="1064" d="M-10 209l762 448l-762 488q3 56 38 101.5t85 45.5l942 -620l-965 -617q-44 7 -72 54t-28 100z" />
<glyph unicode="?" horiz-adv-x="1054" d="M119 1339q150 127 381 127q68 0 129.5 -10.5t119.5 -36.5t100 -65.5t67.5 -101.5t25.5 -140q0 -74 -27.5 -148t-73.5 -141t-94.5 -129t-101 -136.5t-82.5 -139.5q-58 -14 -106 -7.5t-103 35.5q4 47 28 91t59.5 80.5t77 73t82 75.5t74 80t54.5 93.5t21 109.5 q0 38 -10.5 70.5t-34 61.5t-69 46t-108.5 18q-217 5 -338 -82q-39 5 -65 57.5t-6 118.5zM305 109q0 58 44 101.5t106 43.5q60 0 104.5 -42.5t44.5 -102.5q0 -57 -44.5 -99.5t-104.5 -42.5q-61 0 -105.5 42.5t-44.5 99.5z" />
<glyph unicode="@" horiz-adv-x="1923" d="M82 504q0 214 78 397.5t210.5 308.5t309.5 196t373 71q237 0 414 -90t275.5 -267.5t98.5 -423.5q0 -145 -35 -264t-93.5 -194.5t-132.5 -116.5t-153 -41q-32 0 -59 4t-62 20t-61 43t-47.5 77.5t-28.5 119.5q-65 -136 -144 -195t-187 -59q-55 0 -107.5 21t-99 64 t-75 120.5t-28.5 177.5q0 139 61 272t169.5 219.5t232.5 86.5q113 0 209.5 -22.5t147.5 -57.5q-31 -547 -39 -658q-1 -33 26.5 -54t57.5 -21q106 0 171.5 129.5t65.5 349.5q0 276 -148.5 439t-428.5 163q-113 0 -220.5 -31t-205 -98.5t-170.5 -163t-116.5 -234t-43.5 -303.5 q0 -145 42.5 -260t108.5 -185t155.5 -115.5t174.5 -63t174 -17.5q67 0 151.5 15t147.5 35q66 -38 66 -125q0 -9 -3 -25t-3 -22q-147 -60 -367 -60q-85 0 -165 10t-168 35.5t-162.5 66t-143.5 106.5t-117.5 151t-77 205t-28.5 264zM741 461q0 -110 47.5 -161.5t112.5 -51.5 q48 0 122.5 92.5t104.5 208.5l25 332q-48 22 -82 22q-79 0 -143.5 -40t-104 -105t-61 -142t-21.5 -155z" />
<glyph unicode="A" horiz-adv-x="1363" d="M-6 61l586 1366q46 16 86 19q15 1 28 1q23 0 43 -3q32 -5 92 -21l500 -1329q-45 -53 -102 -77.5t-150 -32.5l-119 428l-589 -19l-158 -416q-21 -2 -39 -2q-50 0 -83 14q-45 19 -95 72zM438 584l463 12l-205 610z" />
<glyph unicode="B" horiz-adv-x="1251" d="M129 76l84 1323q220 63 385 63q232 0 372 -96t140 -256q0 -119 -72.5 -199t-214.5 -145q173 -26 270 -115.5t97 -216.5q0 -140 -91 -247.5t-235 -161.5t-313 -54q-219 0 -422 105zM326 238q113 -68 245 -68q96 0 180.5 29.5t141.5 93t57 149.5q0 118 -125.5 178 t-322.5 60q-90 0 -131 -4zM373 852q63 -8 121 -8q383 0 383 229q0 85 -74.5 146t-210.5 61q-99 0 -207 -33z" />
<glyph unicode="C" horiz-adv-x="1296" d="M92 680q0 153 45.5 281.5t121 216t174.5 149t203.5 89.5t209.5 28q124 0 235.5 -43.5t182.5 -126.5q-18 -77 -49.5 -118.5t-88.5 -51.5q-118 98 -282 98q-134 0 -250 -62t-189 -180.5t-73 -267.5q0 -123 38.5 -222.5t106 -163t156.5 -97t192 -33.5q140 0 287 66 q55 -62 55 -131q0 -32 -12 -66q-98 -43 -213 -64.5t-215 -21.5q-152 0 -274 56t-200 154t-119.5 228.5t-41.5 282.5z" />
<glyph unicode="D" horiz-adv-x="1435" d="M129 20l53 1358q276 97 527 97q130 0 243 -46t198.5 -130.5t135 -214.5t49.5 -289q0 -182 -51.5 -338.5t-142 -266.5t-219 -172.5t-277.5 -62.5q-272 0 -516 65zM319 186q131 -38 248 -42q11 0 21 -1q106 0 194 32q98 35 168.5 106.5t110 188.5t39.5 271q0 315 -184 433 q-99 63 -245 64q-126 0 -288 -48z" />
<glyph unicode="E" d="M129 -10l82 1446l874 10q23 -52 23 -88v-6q-2 -38 -37 -95l-668 5l-24 -396l625 31q30 -65 30 -108q0 -41 -28 -105l-629 -6l14 -492l707 58q37 -67 37 -114q0 -48 -33 -120z" />
<glyph unicode="F" horiz-adv-x="1157" d="M129 -16l80 1452l874 10q23 -50 23 -85v-5q-2 -36 -33 -94h-670l-26 -396l575 31q21 -42 29 -70t3 -62t-28 -75l-581 -10l-15 -680q-34 -42 -110 -44h-10q-69 0 -111 28z" />
<glyph unicode="G" horiz-adv-x="1335" d="M92 680q0 153 45.5 282.5t121 218t174 150.5t203 90.5t210.5 28.5q125 0 230.5 -43t176.5 -127q-14 -72 -43 -108.5t-102 -61.5q-120 98 -274 98q-126 0 -240 -62t-187 -177t-73 -254q0 -244 143 -396.5t365 -152.5q69 0 151 16l-43 422q44 36 132 46q22 2 42 2 q62 0 111 -23l-25 -545q-250 -119 -465 -119q-194 0 -344.5 98t-229.5 260t-79 357z" />
<glyph unicode="H" horiz-adv-x="1558" d="M129 12l111 1428q79 16 130 18q5 0 10 1q49 0 120 -13l-66 -565l748 6l-23 540q73 13 127 15q7 0 15 1q49 0 116 -9l-90 -1438q-49 -10 -91 -12q-12 0 -23 -1q-26 1 -46 3q-28 4 -88 14l97 686l-781 8l-14 -661q-75 -25 -127 -29q-12 -1 -27 0q-43 0 -98 8z" />
<glyph unicode="I" horiz-adv-x="806" d="M61 86q5 52 35 88l146 -2l67 1090l-180 8q-28 28 -28 77q1 3 1 5q2 54 33 82h582q28 -39 28 -82q0 -50 -38 -105l-205 6l-15 -1093q165 -8 183 -8q31 -31 31 -77t-33 -75h-582q-26 30 -26 72q0 7 1 14z" />
<glyph unicode="J" horiz-adv-x="677" d="M-48 -226q-5 26 -5 49q0 28 8 52q114 42 178 111.5t91 174t28 271.5l4 969q42 39 136 47q15 1 30 1q72 0 115 -32l-74 -1059q-13 -173 -66.5 -309t-153.5 -228.5t-237 -121.5q-42 19 -54 75z" />
<glyph unicode="K" horiz-adv-x="1234" d="M129 -27l27 1471q35 18 118 20h16q70 0 103 -16l-55 -680l162 43l428 639q29 3 57 3q53 0 100 -11q72 -17 103 -68l-535 -614l555 -705q-28 -49 -102 -75q-67 -23 -130 -23h-15l-461 711l-172 -15l6 -667q-34 -20 -98 -24q-13 -1 -26 -1q-47 0 -81 12z" />
<glyph unicode="L" horiz-adv-x="1005" d="M129 -6l47 1438q56 23 148 24h10q86 0 137 -18l-109 -1237l588 49q33 -51 33 -121q-1 -5 -1 -9q-2 -76 -48 -120z" />
<glyph unicode="M" horiz-adv-x="1703" d="M14 29l320 1386q76 23 116 24h4q39 0 111 -16l271 -735l413 746q17 3 42.5 8t36 6.5t28.5 1.5q2 0 5 1l33 -3q18 -4 44 -12l159 -1397q-67 -39 -117 -52q-34 -9 -79 -9q-20 0 -43 2l-133 1116l-371 -707q-20 -9 -39 -19t-27.5 -14.5t-23 -7.5t-35.5 -2l-270 778 l-197 -1116q-64 -20 -111 -20q-8 0 -16 1q-52 4 -121 40z" />
<glyph unicode="N" horiz-adv-x="1484" d="M129 14l43 1364q35 48 102 60q25 4 49 4q40 0 76 -12l709 -1215l6 1210q43 25 113 27h12q62 0 104 -25l-90 -1419q-43 -42 -86 -54q-19 -5 -41 -5q-28 0 -61 8l-737 1249l12 -1196q-46 -22 -94 -22h-12q-54 3 -105 26z" />
<glyph unicode="O" horiz-adv-x="1484" d="M92 713q0 110 28 219t85 206t135 171.5t186 118.5t230 45h3q280 0 452 -195q173 -196 173 -512q0 -161 -51.5 -309.5t-140 -258t-213 -174.5t-262.5 -65q-150 0 -262.5 40t-195.5 127t-125 234t-42 353zM319 717q0 -88 8 -158t33 -144.5t67 -124t115.5 -81t172.5 -31.5 q88 0 161.5 30.5t125.5 84.5t88.5 129t53.5 163t17 187q0 87 -10 155.5t-38.5 133t-75 106.5t-122.5 67.5t-178 25.5q-190 0 -304 -152t-114 -391z" />
<glyph unicode="P" horiz-adv-x="1191" d="M129 -6l57 1417q204 55 394 55q164 0 295 -56t208.5 -166t77.5 -257q0 -117 -53 -218t-137 -166t-186 -101.5t-203 -36.5q-94 0 -215 45l4 -506q-71 -40 -119 -42q-2 0 -5 -1q-47 0 -118 33zM385 1233l2 -535q91 -30 193 -30q162 0 267 85.5t105 225.5q0 124 -97 204.5 t-263 80.5q-107 0 -207 -31z" />
<glyph unicode="Q" horiz-adv-x="1480" d="M92 741q0 103 29 207t86.5 198t135.5 167t185.5 116t227.5 44h6q276 0 446 -195q172 -196 172 -528q0 -223 -106 -414t-289 -297q62 -81 292 -187t359 -141q-3 -50 -77 -107q-66 -51 -119 -51q-7 0 -13 1q-118 20 -331.5 154.5t-317.5 254.5q-40 -4 -61 -4 q-120 0 -214.5 24t-173 80.5t-130 145.5t-79.5 222.5t-28 309.5zM317 702q0 -84 8 -153.5t33.5 -145t67 -127t115 -85t172.5 -33.5q87 0 160.5 32t125.5 88.5t88.5 133.5t54 166.5t17.5 187.5q0 86 -11.5 156.5t-41 134.5t-76.5 108t-122 69.5t-173 25.5q-192 0 -305 -154.5 t-113 -403.5z" />
<glyph unicode="R" horiz-adv-x="1280" d="M129 -8l55 1419q202 55 394 55q273 0 428 -110t155 -334q0 -88 -26.5 -164t-73 -132t-102.5 -96t-123 -67q34 -81 181.5 -261.5t217.5 -231.5q-29 -56 -103 -94q-48 -24 -94 -24q-25 0 -49 7q-72 59 -192 253.5t-156 305.5q-27 -2 -56 -2q-96 0 -216 25l4 -535 q-55 -43 -119 -46h-11q-59 0 -114 32zM383 1233l4 -500q112 -35 219 -35q152 0 249 74.5t97 196.5q0 130 -95 212.5t-265 82.5q-104 0 -209 -31z" />
<glyph unicode="S" horiz-adv-x="1105" d="M90 74q-4 22 -4 43q0 53 20 105q28 74 80 122q78 -89 151.5 -128.5t174.5 -39.5q122 0 188 63t66 146q0 47 -19.5 89t-47 71.5t-72 59t-80.5 48t-86 44t-76 40.5q-42 25 -59 35t-53.5 36t-53 43.5t-42 49t-37 62t-20.5 73t-9 90.5q0 160 107.5 258.5t303.5 98.5 q290 0 465 -97q2 -14 2 -29q0 -53 -23 -110q-29 -73 -83 -98q-162 131 -326 131q-106 0 -165.5 -41.5t-59.5 -124.5q0 -68 53 -117t172 -114q168 -92 217 -126q140 -95 185 -213q28 -72 28 -163q0 -68 -31.5 -138.5t-89.5 -132t-152 -100.5t-206 -39q-250 0 -418 103z" />
<glyph unicode="T" horiz-adv-x="1150" d="M0 1327q2 48 27 117l1165 -10q14 -60 14 -101v-13q-3 -44 -28 -114l-463 15l10 -1209q-58 -16 -92 -22q-20 -3 -43 -3q-16 0 -34 2q-44 4 -91 23l37 1221l-475 -23q-27 65 -27 111v6z" />
<glyph unicode="U" horiz-adv-x="1452" d="M152 522l8 889q67 39 135 39q49 0 98 -20l-24 -803q-1 -27 -1 -53q0 -89 11 -156q14 -86 52.5 -150.5t108.5 -95.5t175 -31q78 0 137 25t95.5 67t60 107t33.5 134t14 159l37 801q39 12 93 12h32q75 -4 106 -29l-53 -872q-10 -144 -59.5 -255.5t-129.5 -181.5 t-181.5 -105.5t-219.5 -35.5q-81 0 -156 19t-143.5 62t-118.5 106q-51 64 -81 158q-29 91 -29 203v7z" />
<glyph unicode="V" horiz-adv-x="1280" d="M33 1376q28 39 93 56.5t136 17.5l348 -1196l449 1192q34 4 66 4q42 0 82 -6q71 -12 106 -49l-565 -1383q-45 -29 -124 -29h-6q-82 1 -137 31z" />
<glyph unicode="W" horiz-adv-x="1902" d="M53 1343q23 51 101 91q54 27 96 28q19 0 37 -6l262 -1286l282 1034q33 50 103 74q45 15 92 15q26 0 53 -5l307 -1069l267 1245q22 4 45 4q52 0 107 -21q79 -30 108 -81l-410 -1364q-48 -39 -133 -39q-2 1 -6 1q-90 2 -145 36l-265 1032l-307 -1040q-54 -31 -119 -31 q-4 1 -10 1q-72 2 -127 32z" />
<glyph unicode="X" d="M23 18l417 646l-377 643q39 48 95.5 89.5t120.5 57.5l317 -606l369 612q117 -17 174 -96l-420 -641l442 -657q-32 -29 -75 -53t-74.5 -36t-81.5 -28l-348 602l-400 -608q-100 26 -159 75z" />
<glyph unicode="Y" horiz-adv-x="1200" d="M33 1335q16 45 84 93q56 40 109 40q11 0 22 -2l379 -770l385 772q21 5 41 5q47 0 93 -27q64 -40 97 -92q-1 1 -130 -201.5t-257 -404.5l-129 -203l8 -551q-56 -25 -134 -26q-4 -1 -8 -1q-73 0 -124 27l33 557z" />
<glyph unicode="Z" horiz-adv-x="1140" d="M51 125l780 1122l-692 -37q-27 16 -31 102q-1 15 -1 29q0 65 14 99l948 -8l21 -113l-791 -1104l717 16q36 -44 40 -112q0 -6 1 -12q0 -60 -33 -103l-928 -4z" />
<glyph unicode="[" horiz-adv-x="796" d="M141 -406l74 1854q86 16 233.5 18.5t258.5 -14.5q23 -39 13 -97t-36 -91q-74 20 -250 20l-92 -1501q68 0 162.5 7.5t146.5 19.5q15 -23 11.5 -101.5t-25.5 -114.5q-124 -17 -268 -15t-228 15z" />
<glyph unicode="\" horiz-adv-x="954" d="M33 1473q27 35 91.5 60.5t82.5 10.5l670 -1526q-9 -28 -81.5 -47t-103.5 -6z" />
<glyph unicode="]" horiz-adv-x="782" d="M77.5 -286q8.5 59 33.5 91q73 -18 274 -18l51 1479q-208 0 -301 -25q-16 23 -14.5 98.5t22.5 110.5q119 18 264 16.5t234 -14.5l-35 -1831q-79 -16 -242 -19t-272 15q-23 38 -14.5 97z" />
<glyph unicode="^" horiz-adv-x="1171" d="M125 963l371 540q39 31 113.5 29.5t90.5 -27.5q344 -534 344 -536q-6 -19 -39.5 -35.5t-72 -23.5t-71.5 -7t-40 10l-227 451l-217 -446q-47 -31 -140 -10.5t-112 55.5z" />
<glyph unicode="_" horiz-adv-x="1550" d="M64 78.5q-2 43.5 8 97.5l1403 17q12 -50 10.5 -93.5t-21.5 -95.5l-1380 -20q-18 51 -20 94.5z" />
<glyph unicode="`" horiz-adv-x="663" d="M178 1481q43 28 138.5 33.5t107.5 -29.5l96 -283q-20 -52 -117 -22z" />
<glyph unicode="a" horiz-adv-x="1183" d="M88 471q0 135 37 246t100 183t147 111.5t179 39.5q85 0 157.5 -29.5t112.5 -69.5l51 82q17 10 49 10h13q42 -2 59 -20q-22 -420 -22 -717q0 -69 17.5 -103t49.5 -38q13 -1 28 -1q22 0 48 3q16 -14 16 -49q0 -18 -4 -41q-12 -69 -45 -96q-25 -2 -77 -2q-82 0 -130 47 t-63 118q-69 -93 -140.5 -135.5t-187.5 -42.5q-74 0 -141.5 29t-125.5 87t-93 158.5t-35 229.5zM283 514q0 -163 64.5 -259.5t189.5 -96.5q109 0 251 127l23 508q-46 38 -114.5 63t-137.5 25q-121 0 -198.5 -104.5t-77.5 -262.5z" />
<glyph unicode="b" horiz-adv-x="1239" d="M143 428l35 958q33 28 102 28h2q70 0 113 -25l-30 -515q187 142 378 142q193 0 300.5 -129t107.5 -336q0 -170 -66.5 -305t-193.5 -213t-293 -78q-59 0 -119.5 14.5t-123 50t-109.5 87.5q-48 51 -77 135q-26 76 -26 167v19zM360 512v-20q0 -75 13 -133q15 -66 40.5 -104 t64 -61.5t75 -31.5t80.5 -8q142 0 222.5 112t80.5 305q0 118 -62 193.5t-182 75.5q-84 0 -160 -36t-167 -108z" />
<glyph unicode="c" horiz-adv-x="1048" d="M88 502q0 105 27 193t72.5 150t107.5 106.5t131 66.5t143 26q21 1 41 1q61 0 112 -9q68 -12 111.5 -33t77 -54t51 -63t33.5 -69q-11 -108 -168 -147q-43 182 -227 182q-130 0 -213.5 -93t-83.5 -249q0 -135 79 -225q80 -89 218 -103q18 -2 36 -2q126 0 290 78 q24 -56 26 -86v-7q0 -29 -16 -79q-140 -104 -352 -104q-106 0 -191.5 30.5t-141 81.5t-93.5 119t-54 140t-16 149z" />
<glyph unicode="d" horiz-adv-x="1294" d="M88 481q0 240 121.5 381.5t345.5 141.5q83 0 154 -22t159 -64l41 583q36 25 94 31q11 1 22 1q45 0 83 -20q-8 -135 -26 -390t-28 -437q-10 -166 -10 -278v-21q0 -72 14.5 -119t41 -67t54 -25.5t63.5 -1.5q23 -20 23 -68v-8q-2 -54 -28 -100q-45 -16 -129 -16 q-92 0 -144 36t-89 117q-57 -72 -141 -112.5t-168 -40.5q-215 0 -334 126t-119 373zM295 492q0 -152 68.5 -242t191.5 -90q72 0 153 48.5t146 121.5l23 430q-151 92 -295 92q-134 0 -210.5 -104t-76.5 -256z" />
<glyph unicode="e" horiz-adv-x="1095" d="M88 506q0 237 155.5 390t387.5 153q81 0 146.5 -14t108 -38t72.5 -52.5t45.5 -62.5t22 -62.5t6.5 -57.5q0 -83 -34.5 -145.5t-94 -97.5t-133.5 -55q-72 -20 -158 -22h-43q-63 0 -121 4q-78 6 -155 21q2 -135 81 -218t242 -83q170 0 314 131q23 -17 36.5 -32t24 -36.5 t10 -48.5t-11.5 -61q-170 -142 -384 -142q-29 0 -60 3q-203 18 -330 154.5t-127 371.5zM287 602q32 -8 93 -15q62 -7 142 -7h7q76 0 143 9q70 10 119 42.5t49 85.5q0 68 -52 100.5t-139 32.5q-92 0 -163 -22.5t-111.5 -60t-61.5 -78.5t-26 -87z" />
<glyph unicode="f" horiz-adv-x="823" d="M-96 -451q-2 9 -2 20q0 37 20 92q25 70 58 81q80 -39 135 -39q37 0 60.5 18t36.5 58t18.5 88t7.5 125q19 610 32 872l-137 -14q-13 8 -13 86q-1 2 -1 5q0 73 14 91l148 -10q13 240 116 350.5t273 110.5q134 0 254 -70v-6q0 -41 -26 -90q-27 -53 -64 -70q-43 39 -76 52.5 t-80 13.5q-92 0 -142 -70.5t-59 -228.5l307 18q9 -29 9 -63q0 -17 -2 -36q-7 -56 -27 -85l-297 12q-8 -142 -39 -936q-3 -62 -8.5 -111t-17 -100.5t-31 -89.5t-47 -68.5t-69 -46.5t-93.5 -16q-60 0 -134.5 16t-123.5 41z" />
<glyph unicode="g" horiz-adv-x="1189" d="M63 -252q0 100 58 176.5t151 118.5q-190 116 -190 436q0 234 134 379.5t341 145.5q58 0 113.5 -14t84 -26.5t95.5 -45.5l18 102q36 28 97 33q10 1 19 1q49 0 87 -22q-22 -386 -27 -915q-2 -179 -30.5 -303t-92 -209.5t-166.5 -125.5t-253 -40q-62 0 -122 10.5t-118 34 t-102 58.5t-70.5 88t-26.5 118zM250 -203q0 -83 67.5 -126.5t186.5 -43.5q99 0 167.5 35t107.5 105t57 159.5t20 212.5q-136 -157 -328 -157q-72 0 -141 16q-64 -37 -100.5 -90t-36.5 -111zM289 489q0 -150 68.5 -238.5t199.5 -88.5q76 0 158 47.5t143 128.5v418 q-145 94 -276 94t-212 -106.5t-81 -254.5z" />
<glyph unicode="h" horiz-adv-x="1259" d="M141 0l56 1421q27 33 89 49q38 10 77 11q23 0 45 -4l-39 -582q91 83 168.5 118.5t175.5 35.5q335 0 335 -396q0 -19 -1 -39l-17 -385q0 -18 5.5 -30.5t14.5 -19t23.5 -8.5t26.5 -2t30.5 3t28 5.5t25.5 6.5q20 -25 20 -72q0 -42 -22 -81q-68 -54 -201 -54q-77 1 -126 45 q-46 42 -46 122v10q1 28 11.5 180.5t15.5 267.5q1 16 1 31q1 109 -39 159q-44 56 -151 56q-73 0 -140 -38.5t-145 -117.5l-10 -692q-42 -19 -104 -21h-10q-56 0 -97 21z" />
<glyph unicode="i" horiz-adv-x="632" d="M166 172l24 848q67 14 109 14h3q43 0 114 -22l-29 -670q-1 -18 -1 -34q0 -91 24 -120q14 -18 46 -17q30 0 76 15q23 -23 23 -76t-23 -96q-81 -41 -172 -41h-12q-88 3 -135.5 52.5t-46.5 146.5zM176 1356q0 68 46 114t106 46q58 0 98.5 -40.5t40.5 -91.5q0 -81 -50 -123 t-104 -42q-57 0 -97 44.5t-40 92.5z" />
<glyph unicode="j" horiz-adv-x="743" d="M-51 -219q0 303 409 455q3 105 3 209q0 292 -23 573q32 19 116 20h9q76 0 102 -16q-29 -935 -39 -1135q-4 -72 -13 -125.5t-28.5 -102.5t-50.5 -80t-79 -49.5t-113 -18.5q-44 0 -84 7.5t-79 27t-67 49t-45.5 77.5t-17.5 109zM139 -184q0 -54 23 -80.5t63 -26.5 q65 0 92 67.5t33 246.5q0 13 1 37t1 36q-94 -57 -153.5 -137t-59.5 -143zM326 1356q0 68 45.5 114t103.5 46q57 0 97 -41t40 -89q0 -82 -49 -124.5t-102 -42.5q-55 0 -95 44.5t-40 92.5z" />
<glyph unicode="k" horiz-adv-x="1105" d="M141 8l54 1391q23 34 105 50q34 7 59 7q36 0 53 -14l-31 -527q176 150 336 150q124 0 190 -61.5t66 -172.5q0 -69 -30 -132.5t-80.5 -111.5t-112 -83t-127.5 -55q37 -65 60.5 -102t58 -80.5t72.5 -68.5t83 -36q21 -3 39 -3q65 0 108 40q35 0 42 -71q1 -15 1 -29 q0 -50 -20 -79q-60 -53 -158 -53q-145 0 -240 99.5t-200 328.5q-1 3 -8 3.5t-20 -0.5t-25.5 -2.5t-31 -4.5t-30.5 -4v-369q-24 -32 -103 -36q-10 -1 -20 0q-63 0 -90 26zM356 508q67 7 141 29t142.5 56.5t113 85.5t44.5 109q0 63 -35 91t-103 28q-124 0 -288 -145z" />
<glyph unicode="l" horiz-adv-x="731" d="M147 297l50 1104q29 37 105 53q36 7 63 7q29 0 45 -9l-41 -1083v-18q0 -81 24 -120q27 -43 92 -43q86 0 164 60q29 -18 42 -65q6 -21 6 -43q0 -27 -9 -54q-35 -60 -105 -89.5t-155 -29.5q-155 -1 -222 79q-60 71 -60 216q0 17 1 35z" />
<glyph unicode="m" horiz-adv-x="1849" d="M141 0q4 118 13 278t14 256q4 80 4 183v43q-1 131 -12 256q28 32 92 38q16 2 29 1q43 0 71 -15l17 -170q83 95 159.5 137t194.5 42q109 0 177 -53.5t81 -159.5q90 111 175 162t204 51q79 0 137 -26t91.5 -67t52.5 -100q19 -60 24 -116q3 -35 3 -74q0 -23 -1 -48l-16 -376 q-2 -75 67 -75q24 0 56 9q17 -17 17 -77t-15 -83q-43 -43 -140 -43q-119 1 -156 55q-33 48 -33 156q0 15 1 31l14 371v23q0 121 -39 177q-43 62 -137 62q-76 0 -152.5 -57t-117.5 -132l-2 -34l-21 -621q-57 -30 -111 -31h-5q-51 0 -82 23l14 598v18q-1 122 -39 178 q-42 60 -131 60q-173 0 -281 -205l-8 -645q-44 -19 -104 -21h-10q-55 0 -95 21z" />
<glyph unicode="n" horiz-adv-x="1259" d="M141 0q4 118 13 278t14 256q4 80 4 183v43q-1 131 -12 256q26 32 90 38q16 2 30 1q43 0 70 -15l15 -178q93 98 174.5 142.5t171.5 44.5q77 0 137 -17.5t97.5 -48.5t63.5 -72.5t36 -89.5q11 -49 15 -101q2 -25 1 -49q0 -28 -2 -55l-10 -366q-1 -28 3 -44.5t17.5 -27.5 t41.5 -10t73 14q20 -26 19 -71q0 -42 -19 -72q-47 -32 -84.5 -45.5t-98.5 -13.5q-90 0 -130 53q-36 47 -36 142q0 12 1 24l14 395v22q0 128 -44 178q-48 54 -161 54q-75 0 -151.5 -51t-139.5 -138l-6 -659q-44 -19 -104 -21h-9q-54 0 -94 21z" />
<glyph unicode="o" horiz-adv-x="1185" d="M88 481q0 136 45 246t119 177t164.5 102.5t187.5 35.5q134 0 232 -39t154 -109t82 -155.5t26 -189.5q0 -263 -138 -421q-136 -156 -365 -155h-9q-119 1 -209.5 32.5t-144 81t-87 119t-45.5 135t-12 140.5zM297 477q0 -65 16 -121t49 -102.5t89 -73t129 -26.5 q68 0 122 20.5t89.5 55.5t59.5 84.5t34 105.5t10 121q0 56 -14.5 108.5t-46 100.5t-89.5 77t-135 29q-129 0 -221 -103.5t-92 -275.5z" />
<glyph unicode="p" horiz-adv-x="1206" d="M121 -469q6 109 19 290.5t21 308t15 284.5q7 148 7 289q0 10 -1 21q0 150 -8 292q53 22 95 26q14 2 29 2q30 0 64 -6l13 -135q83 77 161.5 111.5t186.5 34.5q81 0 150 -26t125 -79.5t88 -145.5t32 -214q0 -223 -89 -370t-261 -199q-75 -23 -165 -23q-118 0 -261 39 l-25 -488q-54 -16 -101 -18h-19q-38 0 -76 6zM348 231q132 -53 233 -53q39 0 73 8q123 28 186 126.5t63 250.5q0 149 -59.5 224t-186.5 75q-157 0 -295 -174z" />
<glyph unicode="q" horiz-adv-x="1236" d="M88 504q0 237 139 387.5t344 150.5q126 0 204 -34t153 -109l43 143q43 2 66 2q14 0 20 -1q14 -2 71 -19q-44 -611 -47 -1186q0 -108 28 -142q17 -20 51 -20q23 0 54 9q13 -12 24 -38t16 -57v-14q0 -24 -12 -48q-16 -30 -54 -46q-37 -8 -92 -8q-113 0 -170 74 q-54 69 -54 204v19l11 372q-132 -153 -369 -153q-110 0 -194.5 43t-133.5 116.5t-73.5 163t-24.5 191.5zM303 516q0 -87 25.5 -157t68.5 -113t102 -60q35 -11 72 -11q25 0 51 5q63 12 133 58.5t132 123.5l22 377q-79 62 -159 92q-75 29 -138 29h-6q-66 -2 -123 -28 t-96 -72.5t-61.5 -109t-22.5 -134.5z" />
<glyph unicode="r" horiz-adv-x="835" d="M141 -2q3 83 11 236t12 249t6 261q0 22 1 42q0 137 -9 230q64 30 127 30q33 0 65 -8l11 -180q59 86 131.5 138.5t142.5 52.5q87 0 142 -42.5t55 -117.5q0 -77 -48 -119q-38 -33 -84 -34q-13 0 -26 3q0 67 -21.5 99t-70.5 32q-130 0 -226 -194l-18 -676q-40 -26 -106 -27 h-5q-62 0 -90 25z" />
<glyph unicode="s" horiz-adv-x="1069" d="M106 78q-6 16 -6 36q0 33 16 74q26 66 70 97q65 -50 180 -88.5t203 -38.5q209 0 209 102q0 29 -34 56t-88.5 51t-120 50t-131 59.5t-120 73.5t-88.5 98t-34 126q0 132 109.5 203.5t285.5 71.5q283 0 406 -72q2 -11 2 -23q0 -38 -18 -82q-23 -56 -64 -67 q-41 28 -135.5 48.5t-155.5 20.5q-97 0 -157 -22.5t-60 -71.5q0 -37 33 -68t85 -54.5t115.5 -47.5t127 -53.5t115.5 -66t85 -93t33 -125.5q0 -46 -12 -87t-42 -81t-76.5 -69t-121 -46.5t-170.5 -17.5q-115 0 -246 29.5t-195 77.5z" />
<glyph unicode="t" horiz-adv-x="905" d="M20 896q3 52 27 112l234 2l4 239q31 34 111 51q44 9 80 9q30 0 54 -6l-45 -277h342q13 -66 13 -117q0 -55 -15 -92l-344 25l-32 -482q-1 -13 -1 -25q0 -145 121 -145q132 0 193 91q42 -23 66 -81q14 -34 14 -65q0 -23 -8 -45q-37 -54 -115.5 -81t-181.5 -27 q-65 0 -118.5 16.5t-94.5 50.5q-42 35 -63 93q-16 46 -16 103q0 17 1 34l43 563l-258 -58q-12 50 -12 94q0 9 1 18z" />
<glyph unicode="u" horiz-adv-x="1269" d="M143 379l27 633q35 5 68 12.5t42.5 9t41.5 3.5q9 1 18 1q23 0 47 -4l-37 -536q-2 -27 -2 -52q0 -37 4 -69q8 -53 30.5 -97t68.5 -68t114 -24q74 0 153.5 46t137.5 124v38q0 272 39 634q22 6 39.5 9t29.5 5q6 1 13 0.5t15 -0.5q18 -2 26 -2.5t35 -5t41 -6.5 q-36 -314 -36 -579q0 -75 3 -146q0 -23 1.5 -39t5 -34.5t9.5 -30.5t16.5 -22.5t24.5 -14.5t35 -4t47 8q16 -16 16 -56q0 -12 -2 -24q-6 -60 -28 -84q-44 -24 -117 -24q-79 0 -126 41t-54 147q-179 -186 -397 -186q-83 0 -146 21t-102.5 56.5t-63.5 87t-32 108.5q-6 41 -6 88 q0 18 1 36z" />
<glyph unicode="v" horiz-adv-x="1202" d="M135 1004q23 28 113 38q30 3 55 3q49 0 76 -13q-7 -149 -7 -269q0 -85 4 -155q8 -170 40.5 -272.5t74 -145.5t95.5 -43q81 0 143.5 50.5t96.5 131t50.5 167t16.5 172.5q0 118 -22 170t-87 82q-22 17 -22 57q0 18 4 41q14 73 55 96q133 -2 213 -105t80 -284 q0 -140 -35.5 -273t-101 -242t-171 -175t-233.5 -66q-107 0 -184 36t-130 110.5t-82.5 199t-39.5 291.5q-6 93 -6 205q0 90 4 193z" />
<glyph unicode="w" horiz-adv-x="1742" d="M130 519v13q0 195 28 476q14 29 104 34q15 1 29 1q66 0 86 -21q-29 -241 -31 -402v-23q0 -145 24 -231q26 -94 73.5 -132.5t123.5 -38.5q70 0 114.5 65t78.5 201q0 263 18 530q34 31 110 41q22 3 40 3q45 0 71 -17q-7 -159 -7 -288q0 -218 21 -350q34 -210 144 -210 q74 0 130.5 46t88 122.5t47 162.5t15.5 179q0 107 -39.5 182t-106.5 103q-3 12 -3 24q0 33 22 69q31 50 86 56q100 -5 179 -112t79 -273q0 -150 -35 -285.5t-99.5 -240t-163.5 -166.5t-218 -62q-120 0 -212 89.5t-114 248.5q-37 -182 -122.5 -265t-194.5 -83 q-123 0 -200.5 54.5t-121 177.5t-44.5 322z" />
<glyph unicode="x" horiz-adv-x="1118" d="M43 68q209 280 397 456l-254 357q-18 25 -63 45q10 74 40 101q25 21 60 22q12 1 24 1q37 0 63 -10q34 -13 65 -61l190 -324q156 164 309 385h14q157 0 187 -67q-12 -32 -60.5 -92.5t-96 -112t-126 -133t-106.5 -111.5l236 -336q26 -38 63 -58q32 -18 62 -17h8 q7 -20 2 -47t-15 -51.5t-40 -41.5q-29 -16 -71 -16h-5q-47 2 -93 29t-77 73l-205 347q-240 -267 -311 -431q-8 -1 -15 -1q-53 0 -105 24q-58 28 -77 70z" />
<glyph unicode="y" horiz-adv-x="1183" d="M111 -285q0 96 56 182t167 152q-142 107 -164 369q-6 72 -6 157q0 182 29 422q36 29 107 38q30 4 55 4q32 0 53 -7q-52 -276 -53 -474v-7q0 -194 57 -302q59 -110 174 -110q49 0 88 20t71.5 66t53.5 128t28 198q17 253 17 487q22 9 53 9q28 0 64 -7q75 -16 102 -41 q-57 -418 -57 -905q0 -119 -16 -216t-43 -164t-67.5 -117.5t-83.5 -80t-98 -47.5t-104 -24t-107 -6q-168 0 -272 81.5t-104 194.5zM307 -217q0 -67 55 -111.5t164 -44.5q166 0 241 123.5t75 396.5q-33 -47 -73.5 -81t-80 -51t-73 -24t-64.5 -7q-45 0 -90 10 q-76 -43 -115 -98.5t-39 -112.5z" />
<glyph unicode="z" horiz-adv-x="958" d="M45 104l594 727q-166 -26 -289.5 -25.5t-204.5 25.5q-27 9 -43 53q-10 27 -11 55q1 18 5 36q10 46 51 55q75 -28 163 -38q80 -10 136 -9h10q58 1 145.5 6.5t121.5 5.5q52 13 87 13q36 0 54 -12q38 -24 41 -93l-565 -708q112 18 246 18q118 0 254 -14q18 -18 25 -63 q3 -18 3 -36q0 -28 -6 -54q-10 -44 -37 -58q-95 22 -173 34q-67 10 -162 10h-34q-118 -2 -243 -26l-78 -20q-53 3 -79 43q-16 25 -16 49q0 13 5 26z" />
<glyph unicode="{" horiz-adv-x="741" d="M52 526q0 28 18 52q66 17 118 66t68 130q13 71 12 163t-9 170.5t-6 155t21 115.5q20 42 88 68t138.5 33.5t150.5 7.5q24 -9 29 -63.5t-16 -86.5q-9 -3 -37.5 -9.5t-48 -12.5t-44 -17t-42.5 -28.5t-27 -40.5q-14 -34 -11 -106.5t13 -146.5t10.5 -157.5t-18.5 -138.5 q-19 -53 -70.5 -81.5t-144.5 -49.5v-21q77 -14 134 -48.5t71 -82.5q22 -106 1.5 -226t-40 -253t-0.5 -172q3 -7 9.5 -13.5t12.5 -11.5t17 -10t18 -8t21 -7.5t20 -6.5t21.5 -6t19.5 -5q11 -38 -2 -79.5t-29 -55.5q-46 -6 -108.5 0t-124 31.5t-74.5 67.5q-16 40 -11 124 t19 159.5t23 176t0 174.5q-17 151 -172 203q-18 19 -18 47z" />
<glyph unicode="|" horiz-adv-x="636" d="M217 -424l23 1880q15 32 80.5 27.5t97.5 -41.5l4 -1884q-12 -15 -38 -23t-55 -8t-55.5 5t-43 17t-13.5 27z" />
<glyph unicode="}" horiz-adv-x="698" d="M66 -405q-8 38 6 83q7 2 32.5 8.5t40.5 11.5t35.5 12.5t33.5 17t19 20.5q16 32 13.5 117.5t-13.5 177t-11.5 192t20.5 162.5q18 48 80 82t141 49v21q-61 14 -100.5 28.5t-71.5 40.5t-43 62q-15 54 -8 139t23 157t24.5 147t-2.5 108q-6 19 -19 34.5t-25 24.5t-32.5 18 t-32.5 13t-34.5 10t-28.5 8q-20 33 -10.5 84.5t34.5 63.5q305 0 350 -109q17 -35 14 -115.5t-15 -155t-20.5 -171t-0.5 -162.5q10 -82 56.5 -130.5t111.5 -65.5q15 -23 13.5 -52t-21.5 -47q-72 -23 -119.5 -69.5t-63.5 -133.5q-13 -79 -10.5 -174.5t11.5 -176t8.5 -159.5 t-19.5 -124q-17 -42 -88 -67.5t-139.5 -31.5t-112.5 0q-18 14 -26 52z" />
<glyph unicode="~" horiz-adv-x="1046" d="M92 645q18 55 61 94t90.5 55.5t96.5 16.5q67 0 202 -39t165 -39q96 0 170 88q27 -7 50.5 -34t26.5 -54q-11 -92 -62 -153.5t-134 -61.5q-84 0 -219.5 42t-194.5 42q-117 0 -190 -67q-22 8 -42 46.5t-20 63.5z" />
<glyph unicode="&#xa2;" horiz-adv-x="1048" d="M88 522q0 113 35 207t95 156.5t135 101t161 51.5l-20 195q29 26 97 22.5t107 -30.5l-32 -183q75 -6 130 -27.5t89.5 -58t51.5 -65t36 -72.5q-3 -32 -18.5 -58.5t-40 -44t-51.5 -29t-58 -17.5q-42 179 -191 182q-156 3 -233.5 -85t-77.5 -235q0 -146 71.5 -242t204 -114 t322.5 82q26 -34 29 -86t-19 -86q-74 -57 -132 -78t-154 -24l20 -187q-49 -29 -109.5 -23t-99.5 33l29 183q-101 16 -176 66.5t-117.5 125.5t-63 160t-20.5 180z" />
<glyph unicode="&#xa3;" horiz-adv-x="1388" d="M82 801q-9 41 6.5 102t36.5 84h139v78q0 181 128 299.5t347 118.5q235 0 424 -105q17 -12 17.5 -46t-12.5 -72t-45 -72t-74 -45q-38 74 -137.5 117t-202.5 43q-105 0 -160 -63t-55 -167v-86h426q15 -20 0 -81t-46 -83l-376 -12q8 -208 8 -309q0 -180 -129 -312l29 -24 q140 72 196 72q74 0 189.5 -19.5t140.5 -19.5q70 0 138.5 26.5t96.5 69.5q34 6 77 -14.5t56 -44.5q-35 -123 -118 -188.5t-197 -65.5q-80 0 -227.5 28.5t-184.5 28.5q-161 0 -342 -62q3 -1 -13.5 18.5t-36 39.5t-23.5 20q69 124 100 203.5t31 167.5q0 66 -15 379z" />
<glyph unicode="&#xa5;" horiz-adv-x="1071" d="M-47 1333q14 47 81 94.5t132 40.5l315 -620l43 -154h21l55 156l328 618q64 16 132.5 -24t102.5 -90l-379 -592l213 12q10 -7 12.5 -51.5t-7 -93.5t-29.5 -64l-305 15l-23 -37v-90l330 14q13 -11 16.5 -57t-7.5 -94.5t-34 -63.5l-301 35l4 -295q-53 -22 -137.5 -23.5 t-130.5 23.5l16 299l-303 -33q-29 27 -24.5 108t32.5 95l306 -10l6 98l-21 33l-286 -11q-27 25 -22.5 107t28.5 90l174 -6z" />
<glyph unicode="&#xa8;" horiz-adv-x="1146" d="M190 1358q60 105 150 147q94 -52 152 -149q-53 -103 -154 -148q-93 49 -148 150zM649 1352q61 108 150 149q89 -51 151 -151q-55 -102 -151 -146q-50 26 -85 61t-65 87z" />
<glyph unicode="&#xa9;" horiz-adv-x="1236" d="M94 1014q15 218 163 345t390 120q169 -5 288 -77t172.5 -190t41.5 -268q-19 -252 -154.5 -380t-376.5 -126q-147 1 -255.5 49t-168 130t-84.5 182t-16 215zM260 985q-3 -195 97 -301t261 -106q167 0 262 93t99 279q4 187 -91.5 285.5t-258.5 101.5q-69 2 -133 -19 t-117 -62.5t-85.5 -111.5t-33.5 -159zM340 956q0 139 78.5 217.5t191.5 83.5q113 4 166 -32.5t78 -100.5q-2 -69 -106 -82q-28 107 -107 107q-83 0 -123 -51t-37 -135q1 -62 29 -107.5t73.5 -65.5t109 -7.5t128.5 61.5q33 -64 15 -115q-44 -33 -64 -46t-57.5 -24.5 t-85.5 -11.5q-73 0 -129.5 26t-90.5 70.5t-51.5 98.5t-17.5 114z" />
<glyph unicode="&#xab;" horiz-adv-x="1142" d="M43 539l414 487q57 -13 115.5 -62.5t54.5 -93.5l-387 -331l362 -314q0 -49 -64.5 -105t-117.5 -59zM502 539l413 487q51 -11 108 -56.5t54 -92.5l-377 -338l355 -324q-3 -51 -62 -101t-112 -53z" />
<glyph unicode="&#xad;" horiz-adv-x="747" d="M160 537.5q-1 44.5 8 95.5l410 16q11 -46 10 -90.5t-21 -95.5l-389 -21q-17 51 -18 95.5z" />
<glyph unicode="&#xae;" horiz-adv-x="1236" d="M94 1014q15 218 163 345t390 120q169 -5 288 -77t172.5 -190t41.5 -268q-19 -252 -154.5 -380t-376.5 -126q-147 1 -255.5 49t-168 130t-84.5 182t-16 215zM260 985q-3 -195 97 -301t261 -106q167 0 262 93t99 279q4 187 -91.5 285.5t-258.5 101.5q-69 2 -133 -19 t-117 -62.5t-85.5 -111.5t-33.5 -159zM410 692l2 549q76 23 190 23q72 0 130.5 -20.5t95 -65.5t32.5 -107q-3 -60 -38.5 -105.5t-78.5 -58.5q17 -37 64 -102.5t72 -79.5q2 -22 -45.5 -39.5t-85.5 -7.5q-54 32 -123 209q-47 0 -90 6l8 -203q-29 -10 -69 -10t-64 12zM522 1147 l2 -162q40 -12 99 -12q120 0 120 92q0 40 -36.5 67t-100.5 27q-26 0 -84 -12z" />
<glyph unicode="&#xb4;" horiz-adv-x="536" d="M160 1202l104 283q6 22 107.5 21t138.5 -23l-236 -303q-19 -10 -62 -1t-52 23z" />
<glyph unicode="&#xb8;" horiz-adv-x="653" d="M136 -349q7 30 26.5 54t34.5 19q52 -18 88.5 -26.5t64 -7.5t40.5 15t13 41q0 40 -51.5 65t-134.5 35l105 252l149 -35l-72 -147q88 -12 128 -53.5t40 -122.5q0 -87 -56.5 -140t-152 -55.5t-219.5 52.5q-10 24 -3 54z" />
<glyph unicode="&#xbb;" horiz-adv-x="1144" d="M66 213l378 336l-354 323q2 45 60.5 99t111.5 55l379 -477l-414 -488q-51 13 -107.5 59t-53.5 93zM520 221l385 328l-364 317q0 51 63 104t119 56l377 -477l-408 -488q-56 12 -116 61.5t-56 98.5z" />
<glyph unicode="&#x2c6;" horiz-adv-x="950" d="M133 1176l270 333q28 9 37 8.5t37 -8.5l279 -333q-11 -27 -52.5 -39t-87.5 0l-184 180l-186 -182q-29 -10 -70 7t-43 34z" />
<glyph unicode="&#x2da;" horiz-adv-x="657" d="M150 1329q0 72 58.5 126t143.5 54t144 -54t59 -126q0 -71 -59 -123.5t-144 -52.5t-143.5 52t-58.5 124zM276 1329q0 -32 22.5 -56t53.5 -24t52.5 24t21.5 56t-21.5 56t-52.5 24t-53.5 -24t-22.5 -56z" />
<glyph unicode="&#x2dc;" horiz-adv-x="749" d="M31 1335q26 42 80.5 78.5t113.5 36.5q54 0 134 -35t116 -35q34 0 52.5 13.5t47.5 52.5q20 6 62.5 -18t50.5 -62q-7 -78 -61.5 -126t-132.5 -48q-58 0 -132.5 31.5t-125.5 31.5q-34 0 -61 -15t-60 -44q-41 0 -66 52t-18 87z" />
<glyph unicode="&#x401;" d="M129 -10l82 1446l874 10q25 -56 23 -93.5t-37 -95.5l-668 5l-24 -396l625 31q28 -62 29.5 -104t-27.5 -109l-629 -6l14 -492l707 58q37 -68 36.5 -115.5t-32.5 -118.5zM254 1690q26 49 69 90t93 61q100 -50 159 -158q-25 -52 -69.5 -91.5t-93.5 -59.5q-99 47 -158 158z M719 1686q26 49 69 90t93 61q100 -50 159 -158q-25 -52 -69.5 -91.5t-93.5 -59.5q-99 47 -158 158z" />
<glyph unicode="&#x402;" horiz-adv-x="1417" d="M-12.5 1291.5q-4.5 39.5 1.5 69.5t23 83l1127 -10q15 -76 12 -114.5t-27 -113.5l-508 15l7 -492l2 51q186 105 360 105q89 0 154.5 -24.5t102.5 -61t58.5 -91t28 -102.5t6.5 -108q0 -101 -16 -184t-41.5 -143.5t-68 -114.5t-85 -92t-102.5 -81q-48 -13 -102.5 39 t-59.5 101q131 82 200.5 186.5t69.5 249.5q0 123 -52 171t-173 48q-82 0 -148 -20t-132 -74l8 -572q-68 -16 -95 -20.5t-71 -1.5t-94 22l30 1221l-389 -23q-22 42 -26.5 81.5z" />
<glyph unicode="&#x403;" horiz-adv-x="946" d="M129 -16l23 1458l839 20q32 -135 -24 -241l-605 8l25 -1215q-109 -57 -258 -30zM330 1665l364 225q32 -4 60.5 -42t38 -85.5t-1.5 -91.5l-396 -137q-24 1 -46 46t-19 85z" />
<glyph unicode="&#x404;" horiz-adv-x="1308" d="M92 702q0 146 46.5 270.5t122.5 210t175.5 145.5t205 88t210.5 28q126 0 237 -46.5t181 -135.5q-10 -41 -16.5 -60.5t-22 -40t-39 -33t-64.5 -26.5q-120 98 -276 98q-112 0 -218 -47t-183.5 -134t-102.5 -196l596 -2q28 -33 20.5 -123.5t-36.5 -119.5l-580 16 q34 -205 166.5 -313.5t321.5 -108.5q137 0 280 64q24 -31 36 -50t19 -42t4.5 -45.5t-14.5 -53.5q-250 -86 -438 -86q-151 0 -271.5 56t-199 155.5t-119.5 235t-41 296.5z" />
<glyph unicode="&#x405;" horiz-adv-x="1105" d="M90 74q-12 73 16.5 147.5t79.5 122.5q78 -89 151.5 -128.5t174.5 -39.5q122 0 188 63t66 146q0 47 -19.5 89t-47 71.5t-72 59t-80.5 48t-86 44t-76 40.5q-42 25 -59 35t-53.5 36t-53 43.5t-42 49t-37 62t-20.5 73t-9 90.5q0 160 107.5 258.5t303.5 98.5q290 0 465 -97 q8 -66 -21 -139t-83 -98q-162 131 -326 131q-106 0 -165.5 -41.5t-59.5 -124.5q0 -68 53 -117t172 -114q168 -92 217 -126q140 -95 185 -213q28 -72 28 -163q0 -68 -31.5 -138.5t-89.5 -132t-152 -100.5t-206 -39q-250 0 -418 103z" />
<glyph unicode="&#x406;" horiz-adv-x="768" d="M46 87q4 56 32 87l145 -2l68 1090l-180 8q-27 25 -25 83t31 81h581q29 -43 26 -92.5t-36 -94.5l-205 6l-14 -1093l182 -8q29 -31 30.5 -77t-32.5 -75h-581q-26 31 -22 87z" />
<glyph unicode="&#x407;" horiz-adv-x="757" d="M37 1690q54 108 149 151q98 -51 156 -151q-55 -107 -152 -150q-50 23 -85 59t-68 91zM44 87q4 56 32 87l145 -2l68 1090l-180 8q-27 25 -25 83t31 81h581q29 -43 26 -92.5t-36 -94.5l-205 6l-14 -1093l182 -8q29 -31 30.5 -77t-32.5 -75h-581q-26 31 -22 87zM453 1686 q57 109 149 151q97 -51 154 -151q-55 -107 -152 -150q-48 23 -82.5 59.5t-68.5 90.5z" />
<glyph unicode="&#x408;" horiz-adv-x="677" d="M-47.5 -225.5q-11.5 56.5 2.5 100.5q114 42 178 111.5t91 174t28 271.5l4 969q42 39 135.5 47t145.5 -31l-74 -1059q-13 -173 -66.5 -309t-153.5 -228.5t-237 -121.5q-42 19 -53.5 75.5z" />
<glyph unicode="&#x409;" horiz-adv-x="1902" d="M-25 37q9 154 78 235q32 -28 92 -28q104 0 165.5 284t113.5 928q349 46 778 -22l-28 -498q127 37 227 37q91 0 169 -27.5t138 -82t94.5 -143.5t34.5 -204q0 -135 -47.5 -244t-127 -177t-180 -104t-210.5 -36q-237 0 -412 31l96 1269q-16 2 -79.5 11.5t-92 12t-77.5 1 t-89 -13.5q-9 -70 -20.5 -179t-20 -185.5t-21.5 -178t-27.5 -174.5t-35 -156t-47.5 -142t-61.5 -113t-80 -88.5t-99.5 -49.5q-77 -20 -138.5 -8t-91.5 45zM1128 186q62 -22 136 -22q146 0 238.5 88.5t92.5 257.5q0 254 -260 254q-71 0 -174 -33z" />
<glyph unicode="&#x40a;" horiz-adv-x="2000" d="M129 12l109 1428q74 17 127 17.5t133 -11.5l-64 -565l623 22l-17 524q69 14 126.5 15.5t129.5 -8.5l-30 -492q154 25 243 25q184 0 304 -123t120 -328q0 -135 -47 -244t-126.5 -177t-178.5 -104t-207 -36q-226 0 -413 45h-3l101 723l-666 -29l-14 -661 q-68 -23 -123.5 -27.5t-126.5 6.5zM1219 188q65 -24 145 -24q141 0 235.5 86.5t94.5 234.5q0 56 -13 102.5t-41.5 86.5t-81.5 63t-126 23q-61 0 -179 -12z" />
<glyph unicode="&#x40b;" horiz-adv-x="1462" d="M-24 1328q0 84 18 116l1077 -10q20 -40 13 -114.5t-25 -105.5l-434 15l-9 -420q148 68 367 68q217 0 309 -102.5t92 -325.5q0 -57 -7 -127.5t-14.5 -125.5t-31.5 -216q-131 -31 -233 34q29 68 55.5 174t26.5 213q0 139 -55.5 214t-194.5 75q-126 0 -326 -61v-621 q-134 -29 -229 -20l35 1253l-414 -24q-20 27 -20 111z" />
<glyph unicode="&#x40c;" horiz-adv-x="1216" d="M129 -27l27 1471q35 18 118 20t119 -16l-55 -680l162 43l428 639q85 9 157 -8t103 -68l-535 -614l555 -705q-27 -50 -101.5 -75.5t-145.5 -22.5l-461 711l-172 -15l6 -667q-35 -20 -98.5 -24t-106.5 11zM469 1663l365 225q32 -4 60 -42t37.5 -85.5t-1.5 -91.5l-395 -137 q-25 1 -47 46t-19 85z" />
<glyph unicode="&#x40e;" horiz-adv-x="1208" d="M35 1403q78 32 137 41.5t152 11.5l428 -905l315 907q84 13 139 1.5t125 -56.5l-512 -1092q-79 -153 -124 -213q-99 -130 -206 -131q-74 0 -145 36.5t-125 102.5q7 34 17 57.5t29 42t29.5 26.5t42 25t42.5 24q23 -50 66.5 -81.5t89.5 -31.5q63 0 106 88zM348 1812 q14 18 79.5 16.5t82.5 -22.5q-22 -92 43.5 -144t204.5 -52q167 0 231 51.5t43 146.5q27 24 88 25.5t88 -16.5q20 -82 -1.5 -148.5t-69 -107.5t-115.5 -68t-136.5 -38t-137.5 -11q-61 0 -119 9.5t-117.5 35t-100.5 65t-60 106.5t-3 152z" />
<glyph unicode="&#x40f;" horiz-adv-x="1521" d="M129 -12l53 1468q82 13 126.5 12t129.5 -14l-55 -1257l700 8l58 1253q82 17 126 16t126 -20l-93 -1456l-454 -4l22 -332q-14 -28 -78 -39.5t-125.5 -3.5t-70.5 31l20 342z" />
<glyph unicode="&#x410;" horiz-adv-x="1363" d="M-6 61l586 1366q46 16 85.5 19t71.5 -2t92 -21l500 -1329q-45 -53 -102 -77.5t-150 -32.5l-119 428l-589 -19l-158 -416q-77 -7 -122 12t-95 72zM438 584l463 12l-205 610z" />
<glyph unicode="&#x411;" horiz-adv-x="1200" d="M129 23l35 1427l909 -23q10 -46 9.5 -92t-17.5 -90l-684 27l-33 -422q158 31 301 31q107 0 192 -23t140 -61t91.5 -91.5t51.5 -111.5t15 -123q0 -244 -143.5 -381t-417.5 -137q-190 0 -449 70zM311 170q131 -51 260 -51q159 0 259 84.5t100 236.5q0 125 -92 200t-269 75 q-115 0 -239 -31z" />
<glyph unicode="&#x412;" horiz-adv-x="1251" d="M129 76l84 1323q220 63 385 63q232 0 372 -96t140 -256q0 -119 -72.5 -199t-214.5 -145q173 -26 270 -115.5t97 -216.5q0 -140 -91 -247.5t-235 -161.5t-313 -54q-219 0 -422 105zM326 238q113 -68 245 -68q96 0 180.5 29.5t141.5 93t57 149.5q0 118 -125.5 178 t-322.5 60q-90 0 -131 -4zM373 852q63 -8 121 -8q383 0 383 229q0 85 -74.5 146t-210.5 61q-99 0 -207 -33z" />
<glyph unicode="&#x413;" horiz-adv-x="974" d="M129 -16l23 1458l839 20q32 -135 -24 -241l-605 8l25 -1215q-109 -57 -258 -30z" />
<glyph unicode="&#x414;" horiz-adv-x="1431" d="M-27 170l172 25q257 306 287 1247q202 21 404 14t389 -37l-76 -1229l211 -24l-60 -574q-131 0 -165 25l4 371q-244 27 -369 35.5t-266.5 2.5t-337.5 -34l12 -371q-95 -29 -196 -18zM354 213q209 11 574 -4l71 1038q-91 15 -202.5 15t-202.5 -19q-53 -716 -240 -1030z" />
<glyph unicode="&#x415;" d="M129 -10l82 1446l874 10q25 -56 23 -93.5t-37 -95.5l-668 5l-24 -396l625 31q28 -62 29.5 -104t-27.5 -109l-629 -6l14 -492l707 58q37 -68 36.5 -115.5t-32.5 -118.5z" />
<glyph unicode="&#x416;" horiz-adv-x="1769" d="M-23 63l512 711l-368 623q48 18 68.5 24.5t53 13.5t61.5 5.5t67 -8.5l250 -584l178 -31l35 596q71 11 115.5 6.5t109.5 -26.5l-135 -559l172 6l417 575q73 4 114 -6.5t104 -50.5l-486 -549l502 -743q-50 -32 -74.5 -45t-68 -25t-99.5 -14l-393 706l-141 -20l16 -686 q-61 -23 -105 -25.5t-106 16.5l21 709h-156l-434 -717q-71 6 -122 28.5t-108 69.5z" />
<glyph unicode="&#x417;" horiz-adv-x="1095" d="M23 74q-7 50 2 104t30 92q204 -118 410 -118q141 0 230 63.5t89 171.5q0 58 -17.5 103t-43.5 73.5t-68.5 48t-81 29t-92.5 13t-91 3t-89 -3.5q-11 50 -8 83t31 77l59 2q160 4 225 19q159 37 180 177q3 23 3 48q0 102 -71.5 153.5t-197.5 51.5q-183 0 -409 -95 q-37 43 -47 82.5t2 98.5q80 53 199.5 83.5t246.5 30.5q76 0 146 -12.5t135.5 -43t113 -75.5t76.5 -115t29 -157q0 -91 -70.5 -182t-167.5 -111l2 -10q81 -25 135.5 -88t76.5 -137.5t22 -159.5q0 -180 -152.5 -299t-378.5 -119q-223 0 -458 119z" />
<glyph unicode="&#x418;" horiz-adv-x="1456" d="M129 49l35 1356q70 14 110 12t107 -22l-53 -1098l772 1112q63 23 110.5 23t108.5 -25l-4 -1382q-75 -27 -126 -32t-126 11l98 1155l-813 -1177q-144 -25 -219 67z" />
<glyph unicode="&#x419;" horiz-adv-x="1456" d="M129 49l35 1356q70 14 110 12t107 -22l-53 -1098l772 1112q63 23 110.5 23t108.5 -25l-4 -1382q-75 -27 -126 -32t-126 11l98 1155l-813 -1177q-144 -25 -219 67zM336 1819q15 18 80 16t82 -23q-22 -92 43 -144t204 -52q166 0 230 52t43 147q27 24 89 25t89 -17 q16 -61 7 -110.5t-31.5 -88t-61.5 -67t-83 -48.5t-96 -32t-100 -17.5t-96 -5.5q-61 0 -118.5 9t-117.5 34.5t-100.5 64.5t-59.5 105.5t-3 151.5z" />
<glyph unicode="&#x41a;" horiz-adv-x="1234" d="M129 -27l27 1471q35 18 118 20t119 -16l-55 -680l162 43l428 639q85 9 157 -8t103 -68l-535 -614l555 -705q-27 -50 -101.5 -75.5t-145.5 -22.5l-461 711l-172 -15l6 -667q-35 -20 -98.5 -24t-106.5 11z" />
<glyph unicode="&#x41b;" horiz-adv-x="1341" d="M-23 29q-13 132 86 243q32 -28 93 -28q102 0 164 285t114 927q352 44 768 -22l-74 -1436q-71 -28 -127.5 -31.5t-128.5 19.5l84 1269q-205 43 -329 11q-8 -66 -18 -165t-17 -169.5t-18.5 -164.5t-22.5 -162t-28 -148.5t-36.5 -138.5t-46.5 -118t-59 -99.5t-73.5 -70.5 t-90.5 -44q-44 -13 -79 -15t-77.5 11.5t-83.5 46.5z" />
<glyph unicode="&#x41c;" horiz-adv-x="1703" d="M14 29l320 1386q76 23 115.5 24t115.5 -16l271 -735l413 746q17 3 42.5 8t36 6.5t29 2t37 -3t44.5 -11.5l159 -1397q-68 -39 -117.5 -52t-121.5 -7l-133 1116l-371 -707q-20 -9 -39 -19t-27.5 -14.5t-23 -7.5t-35.5 -2l-270 778l-197 -1116q-75 -23 -127 -19t-121 40z " />
<glyph unicode="&#x41d;" horiz-adv-x="1558" d="M129 12l111 1428q79 17 130 18.5t130 -12.5l-66 -565l748 6l-23 540q74 14 127.5 15.5t130.5 -8.5l-90 -1438q-49 -11 -90.5 -12.5t-69.5 2t-88 14.5l97 686l-781 8l-14 -661q-76 -25 -127.5 -28.5t-124.5 7.5z" />
<glyph unicode="&#x41e;" horiz-adv-x="1488" d="M92 713q0 110 28 219t85 206t135 171.5t186 118.5t230 45q282 1 455 -195t173 -512q0 -161 -51.5 -309.5t-140 -258t-213 -174.5t-262.5 -65q-150 0 -262.5 40t-195.5 127t-125 234t-42 353zM319 717q0 -88 8 -158t33 -144.5t67 -124t115.5 -81t172.5 -31.5 q88 0 161.5 30.5t125.5 84.5t88.5 129t53.5 163t17 187q0 87 -10 155.5t-38.5 133t-75 106.5t-122.5 67.5t-178 25.5q-190 0 -304 -152t-114 -391z" />
<glyph unicode="&#x41f;" horiz-adv-x="1490" d="M129 -20l51 1476l1170 -20l-15 -1454q-56 -13 -88.5 -18t-73 -2.5t-88.5 15.5l33 1248l-700 8l-33 -1251q-86 -15 -129.5 -16.5t-126.5 14.5z" />
<glyph unicode="&#x420;" horiz-adv-x="1191" d="M129 -6l57 1417q204 55 394 55q164 0 295 -56t208.5 -166t77.5 -257q0 -117 -53 -218t-137 -166t-186 -101.5t-203 -36.5q-94 0 -215 45l4 -506q-71 -41 -119.5 -42.5t-122.5 32.5zM385 1233l2 -535q91 -30 193 -30q162 0 267 85.5t105 225.5q0 124 -97 204.5t-263 80.5 q-107 0 -207 -31z" />
<glyph unicode="&#x421;" horiz-adv-x="1296" d="M92 680q0 153 45.5 281.5t121 216t174.5 149t203.5 89.5t209.5 28q124 0 235.5 -43.5t182.5 -126.5q-18 -77 -49.5 -118.5t-88.5 -51.5q-118 98 -282 98q-134 0 -250 -62t-189 -180.5t-73 -267.5q0 -123 38.5 -222.5t106 -163t156.5 -97t192 -33.5q140 0 287 66 q81 -91 43 -197q-98 -43 -213 -64.5t-215 -21.5q-152 0 -274 56t-200 154t-119.5 228.5t-41.5 282.5z" />
<glyph unicode="&#x422;" horiz-adv-x="1150" d="M0 1327q2 48 27 117l1165 -10q17 -71 14 -114.5t-28 -113.5l-463 15l10 -1209q-58 -16 -92 -21.5t-77.5 -1.5t-90.5 23l37 1221l-475 -23q-29 69 -27 117z" />
<glyph unicode="&#x423;" horiz-adv-x="1296" d="M35 1403q78 32 137 41.5t152 11.5l428 -905l315 907q84 13 139 1.5t125 -56.5l-512 -1092q-79 -153 -124 -213q-99 -130 -206 -131q-74 0 -145 36.5t-125 102.5q7 34 17 57.5t29 42t29.5 26.5t42 25t42.5 24q23 -50 66.5 -81.5t89.5 -31.5q63 0 106 88z" />
<glyph unicode="&#x424;" horiz-adv-x="1832" d="M76 768q0 60 15 119t47 119t88 110.5t131 89.5t183 60t238 18l8 213q44 9 96 4.5t83 -12t90 -25.5l-17 -190q111 18 187 18q128 0 226.5 -41t159.5 -115t91.5 -170.5t30.5 -213.5q0 -97 -19.5 -182.5t-63 -160.5t-108.5 -129t-161.5 -85t-215.5 -31q-61 0 -149 12 l-2 -215q-116 -56 -275 -14l9 241q-95 -14 -168 -14q-123 0 -213.5 31t-145.5 82.5t-88 130.5t-45 161.5t-12 188.5zM319 733q0 -113 32.5 -191.5t94.5 -120t141 -57t181 -8.5l14 744q-55 8 -100 8q-180 0 -271.5 -98.5t-91.5 -276.5zM995 373q90 -11 121 -11 q105 0 182 31.5t121.5 88.5t65 129.5t20.5 162.5q0 69 -15 124.5t-47.5 101t-90.5 71t-138 25.5q-97 0 -188 -29z" />
<glyph unicode="&#x425;" d="M23 18l417 646l-377 643q39 48 95.5 89.5t120.5 57.5l317 -606l369 612q117 -17 174 -96l-420 -641l442 -657q-32 -29 -75 -53t-74.5 -36t-81.5 -28l-348 602l-400 -608q-100 26 -159 75z" />
<glyph unicode="&#x426;" horiz-adv-x="1456" d="M135 1436q118 12 256 0l-31 -1223l625 -23l43 1223q100 30 272 23l-71 -1223l164 -10l4 -606q-51 -9 -123 -2t-113 32l15 369l-1031 -27z" />
<glyph unicode="&#x427;" horiz-adv-x="1218" d="M70 936q1 34 3.5 68.5t9 87t11 85.5t16 117.5t17.5 130.5q136 32 240 -34q-27 -67 -57 -188t-34 -226q-2 -57 9.5 -110t33.5 -83q62 -79 199 -79q129 0 332 63q8 561 10 647q66 19 107 24t110 -3l-41 -1475q-41 -22 -120 -17.5t-117 31.5l39 615q-149 -70 -375 -70 q-219 0 -320 96q-84 80 -73 320z" />
<glyph unicode="&#x428;" horiz-adv-x="2033" d="M129 -14l16 1448q134 38 265 2l-54 -1205l484 -45q30 1106 34 1225q135 35 273 0l-64 -1204l531 41l4 112q5 111 11.5 273.5t13 328.5t11 295t5.5 154q38 10 61.5 15.5t54 9.5t59 2.5t60.5 -8.5l-102 -1426q-1534 -16 -1663 -18z" />
<glyph unicode="&#x429;" horiz-adv-x="2043" d="M129 -14l18 1450q143 32 265 2l-56 -1207l484 -45q35 1106 39 1225q74 17 134 17t138 -17l-70 -1204l533 43q0 59 49 1161q73 18 112.5 22.5t114.5 -3.5l-82 -1207h160l4 -620q-46 -20 -122.5 -11.5t-112.5 39.5l18 371z" />
<glyph unicode="&#x42a;" horiz-adv-x="1452" d="M3 1325.5q1 68.5 34 114.5l637 8l-31 -545q154 68 291 68q197 0 324.5 -123.5t127.5 -325.5q0 -176 -80 -306.5t-210.5 -195.5t-292.5 -65q-223 0 -424 111l67 1171l-417 -39q-27 59 -26 127.5zM610 231q91 -43 191 -43q138 0 244 88t106 216q0 117 -73 195.5t-214 78.5 q-106 0 -223 -45z" />
<glyph unicode="&#x42b;" horiz-adv-x="1751" d="M129 66l12 1370q65 12 101.5 16t84 1t101.5 -17l-37 -531q139 53 260 53q122 0 222 -50t161.5 -151t61.5 -237t-44.5 -245t-121 -178t-175.5 -105.5t-212 -36.5q-189 0 -414 111zM356 229q93 -45 185 -45q131 0 226 85.5t95 219.5q0 116 -77.5 188.5t-215.5 72.5 q-92 0 -184 -31zM1264 -8l69 1429q82 18 138.5 12t138.5 -36l-142 -1405q-67 -23 -101 -24t-103 24z" />
<glyph unicode="&#x42c;" horiz-adv-x="1204" d="M129 63l18 1373q72 11 102.5 14.5t77.5 1t103 -15.5l-37 -535q161 70 291 70q195 0 325 -125.5t130 -315.5q0 -139 -47 -250.5t-128.5 -181.5t-186.5 -106.5t-226 -36.5q-203 0 -422 108zM365 229q82 -43 184 -43q141 0 246.5 84t105.5 217q0 117 -72.5 198t-212.5 81 q-108 0 -223 -45z" />
<glyph unicode="&#x42d;" horiz-adv-x="1337" d="M31 148q5 51 39 94q186 -58 338 -58q248 0 406 131.5t185 337.5l-710 -8q-36 109 8 205l700 -21q-3 187 -117 306.5t-286 119.5q-209 0 -453 -133q-41 60 -51.5 107.5t-3.5 113.5q247 115 520 115q621 0 621 -713q0 -177 -58 -322.5t-161.5 -242.5t-246.5 -150t-312 -53 q-193 0 -410 68q-13 52 -8 103z" />
<glyph unicode="&#x42e;" horiz-adv-x="1894" d="M129 6l59 1436q111 10 156 3q47 -7 90 -30l-57 -606l274 27q53 300 213 462t404 162q516 0 516 -717q0 -188 -47.5 -335t-132.5 -240.5t-200 -142t-253 -48.5q-246 0 -395.5 179t-145.5 516l-241 -4q6 -621 6 -654q-98 -63 -246 -8zM850 686q0 -85 7 -153.5t27.5 -137 t54.5 -114.5t90.5 -74.5t131.5 -28.5q102 0 183 46t132 126t78 185.5t27 228.5q0 89 -9 159.5t-31.5 133t-59 104t-93.5 65t-133 23.5q-126 0 -219 -75t-139.5 -201.5t-46.5 -286.5z" />
<glyph unicode="&#x42f;" horiz-adv-x="1280" d="M2 57q288 259 508 545q-78 16 -138 44t-109.5 74.5t-76 119t-26.5 168.5q0 88 37.5 162t102 125t150.5 86.5t182 52t199 16.5q161 0 308 -43l-68 -1407q-65 -14 -104 -18t-93 0l31 610l-186 -6q-226 -367 -494 -621q-84 4 -136 21.5t-87 70.5zM389 1008q0 -128 97 -205.5 t268 -77.5q85 0 161 18l23 517q-73 14 -156 14q-188 0 -290.5 -75.5t-102.5 -190.5z" />
<glyph unicode="&#x430;" horiz-adv-x="1183" d="M88 471q0 135 37 246t100 183t147 111.5t179 39.5q85 0 157.5 -29.5t112.5 -69.5l51 82q21 12 62.5 9.5t58.5 -19.5q-22 -420 -22 -717q0 -69 17.5 -103t49.5 -37.5t76 1.5q24 -21 12 -90t-45 -96q-25 -2 -77 -2q-82 0 -130 47t-63 118q-69 -93 -140.5 -135.5 t-187.5 -42.5q-74 0 -141.5 29t-125.5 87t-93 158.5t-35 229.5zM283 514q0 -163 64.5 -259.5t189.5 -96.5q109 0 251 127l23 508q-46 38 -114.5 63t-137.5 25q-121 0 -198.5 -104.5t-77.5 -262.5z" />
<glyph unicode="&#x431;" horiz-adv-x="1214" d="M111 565q0 156 21.5 281.5t51.5 208t85 146t97 96.5t114.5 58t110.5 32t110 18q167 25 204 70q34 -10 67 -42t40 -69q-18 -60 -51.5 -98.5t-76 -56t-92.5 -26.5t-102.5 -15t-104.5 -15.5t-100 -34.5t-87.5 -66t-68.5 -115t-42 -177q68 94 176 147.5t225 53.5 q119 0 206.5 -36t137 -100.5t72 -142t22.5 -172.5q0 -121 -38.5 -223t-105 -172t-158.5 -109t-197 -39q-273 0 -394.5 144.5t-121.5 453.5zM299 571q-3 -407 324 -407q122 0 209.5 101.5t87.5 236.5q0 130 -71 197t-167 67q-43 0 -83 -9t-67.5 -19t-65.5 -35.5t-54.5 -38 t-58 -48t-54.5 -45.5z" />
<glyph unicode="&#x432;" horiz-adv-x="1077" d="M100 428q0 138 30 250.5t90.5 199.5t161.5 135t234 48q140 0 230 -61.5t90 -184.5q0 -79 -45 -148t-111 -110q95 -6 146 -73.5t51 -155.5q0 -108 -64.5 -189t-160.5 -120t-205 -39q-79 0 -141.5 11.5t-121.5 41.5t-98 79.5t-62.5 129t-23.5 186.5zM309 586 q93 13 150.5 23.5t115.5 26.5t89 34.5t50 46.5t19 65q0 115 -155 115q-114 0 -183.5 -85.5t-85.5 -225.5zM313 444q0 -147 55.5 -216.5t182.5 -69.5q30 0 65 8t73.5 25t63.5 51.5t25 81.5q0 129 -143 182q-49 -4 -164.5 -29.5t-157.5 -32.5z" />
<glyph unicode="&#x433;" horiz-adv-x="909" d="M78 913q70 67 176 103.5t209 36.5q143 0 214 -68t71 -174q0 -53 -22.5 -105t-59 -94t-80.5 -82.5t-88 -77t-80.5 -70.5t-59 -69.5t-22.5 -68.5q0 -94 115 -94q138 0 256 169q28 -2 74.5 -48t62.5 -97q-175 -209 -402 -209q-143 0 -231 65t-88 183q0 57 24 110t62 95 t84.5 81.5t93 76t84.5 72t62 75.5t24 80q0 74 -106 74q-63 0 -135.5 -30.5t-129.5 -84.5q-47 27 -82.5 71t-25.5 80z" />
<glyph unicode="&#x434;" horiz-adv-x="1171" d="M88 451q0 224 138.5 364.5t375.5 140.5q85 0 166.5 -24.5t132.5 -75.5q-12 190 -95 311t-214 121q-74 0 -138.5 -42t-97.5 -107q-68 17 -117.5 59.5t-54.5 83.5q56 85 174.5 136.5t245.5 51.5q101 0 182.5 -29t139 -81.5t96.5 -127.5t57.5 -166t18.5 -198 q0 -198 -43 -369t-116.5 -287.5t-172 -182.5t-207.5 -66q-89 0 -166.5 28.5t-132.5 77t-94.5 111.5t-58.5 132t-19 139zM283 467q0 -142 77.5 -223.5t182.5 -81.5q151 0 242 134.5t112 369.5q-52 45 -129 72.5t-160 27.5q-46 0 -88.5 -7.5t-86.5 -28.5t-76.5 -53t-53 -86 t-20.5 -124z" />
<glyph unicode="&#x435;" horiz-adv-x="1120" d="M88 506q0 237 155.5 390t387.5 153q81 0 146.5 -14t108 -38t72.5 -52.5t45.5 -62.5t22 -62.5t6.5 -57.5q0 -83 -34.5 -145.5t-94 -97.5t-133 -55t-159 -22t-163.5 4t-155 21q2 -135 81 -218t242 -83q170 0 314 131q23 -17 36.5 -32t24 -36.5t10 -48.5t-11.5 -61 q-193 -161 -444 -139q-203 18 -330 154.5t-127 371.5zM287 602q32 -8 93 -15t141.5 -7.5t150.5 9.5t119 42.5t49 85.5q0 68 -52 100.5t-139 32.5q-92 0 -163 -22.5t-111.5 -60t-61.5 -78.5t-26 -87z" />
<glyph unicode="&#x436;" horiz-adv-x="1617" d="M43 49l324 475q-38 105 -72 172.5t-63 98t-57.5 39.5t-55.5 -3q-21 31 -33 70.5t-10 69.5q25 30 67.5 48.5t87.5 18.5q59 0 107.5 -36t106.5 -135t126 -275l123 4l-12 430q87 16 139.5 14t136.5 -18l-61 -408l123 -4l278 414q58 20 122.5 14t111.5 -32l-358 -453 q124 -209 153 -250q77 -111 139 -126q12 -3 25 -3q21 0 41 4q21 -20 35 -64.5t8 -86.5q-38 -54 -119 -54q-123 0 -213 102t-233 396l-125 -4l28 -477q-73 -19 -114 -23.5t-111 2.5l21 480l-152 8l-289 -457q-63 -21 -124 -11t-101 60z" />
<glyph unicode="&#x437;" horiz-adv-x="1024" d="M68 70q0 62 10 97.5t22.5 47t40.5 25.5q73 -49 162 -78t156 -31q91 -3 150 17.5t100 78.5q14 20 15.5 48.5t-9.5 56.5t-39.5 51.5t-69.5 32.5q-55 11 -148 -2t-114 -13q-14 42 -19.5 62t-3 55t22.5 62q142 2 219 0q56 -1 98 37.5t44 82.5q2 39 -19 70.5t-54.5 49 t-68 26.5t-65.5 10q-150 2 -351 -98q-36 54 -45 98t2 92q81 41 195.5 64.5t222.5 23.5q371 0 381 -256q5 -92 -36.5 -164.5t-125.5 -93.5q58 -18 99 -50.5t61.5 -72t28 -79t4.5 -80.5q-6 -85 -40.5 -144t-97.5 -91t-142 -45.5t-187 -12.5q-125 2 -240.5 37t-158.5 86z" />
<glyph unicode="&#x438;" horiz-adv-x="1269" d="M143 379l27 633q35 5 68 12.5t42.5 9t41.5 3.5t65 -3l-37 -536q-5 -68 2.5 -121t30 -97t68.5 -68t114 -24q74 0 153.5 46t137.5 124q-3 285 39 672q22 6 39.5 9t29 4.5t29 0t25.5 -2t35 -5t41 -6.5q-46 -403 -33 -725q0 -23 1.5 -39t5 -34.5t9.5 -30.5t16.5 -22.5 t24.5 -14.5t35 -3.5t47 7.5q20 -20 14.5 -79.5t-28.5 -84.5q-44 -24 -117 -24q-79 0 -126 41t-54 147q-179 -186 -397 -186q-83 0 -146 21t-102.5 56.5t-63.5 87t-32 108.5t-5 124z" />
<glyph unicode="&#x439;" horiz-adv-x="1269" d="M143 379l27 633q35 5 68 12.5t42.5 9t41.5 3.5t65 -3l-37 -536q-5 -68 2.5 -121t30 -97t68.5 -68t114 -24q74 0 153.5 46t137.5 124q-3 285 39 672q22 6 39.5 9t29 4.5t29 0t25.5 -2t35 -5t41 -6.5q-46 -403 -33 -725q0 -23 1.5 -39t5 -34.5t9.5 -30.5t16.5 -22.5 t24.5 -14.5t35 -3.5t47 7.5q20 -20 14.5 -79.5t-28.5 -84.5q-44 -24 -117 -24q-79 0 -126 41t-54 147q-179 -186 -397 -186q-83 0 -146 21t-102.5 56.5t-63.5 87t-32 108.5t-5 124zM362.5 1266.5q-30.5 69.5 12.5 169.5q15 15 73.5 13.5t73.5 -19.5q-28 -154 119 -154 q89 0 152 35t118 96q27 -7 50 -22t34 -27t27.5 -33t21.5 -27q-142 -174 -391 -174q-105 0 -182.5 36.5t-108 106z" />
<glyph unicode="&#x43a;" horiz-adv-x="1101" d="M141 8l52 985q22 34 101.5 50t108.5 -7l-36 -440l116 25l297 407q53 14 137 2t105 -43l-410 -461q74 -172 159 -264t157 -92q62 0 110 35q30 -15 39.5 -67t-6.5 -103q-50 -41 -91.5 -53.5t-96.5 -12.5q-38 0 -73 11.5t-65 30.5t-61 53.5t-56.5 70t-57.5 91.5t-58 106 t-63 125l-91 -4l2 -435q-24 -31 -106 -35.5t-113 25.5z" />
<glyph unicode="&#x43b;" horiz-adv-x="1277" d="M48.5 109.5q15.5 76.5 47.5 107.5q131 -37 203 113.5t104 529.5l-161 -31q-30 30 -31.5 98t37.5 97h565q55 0 98 -7.5t71.5 -20.5t49 -31.5t30 -41t15.5 -48t6 -53v-56.5l-16 -483q-1 -37 1.5 -58t10 -36t25 -18.5t42.5 -1t66 12.5q22 -57 7 -125q-31 -40 -82.5 -60 t-141.5 -20q-44 0 -73.5 18.5t-42.5 50.5t-17.5 64t-1.5 68l19 522q3 65 -18.5 102t-65.5 40l-232 16q-51 -878 -375 -878q-15 0 -27 1t-20.5 2t-20.5 4.5t-17.5 5.5t-22.5 8t-25 9q-22 23 -6.5 99.5z" />
<glyph unicode="&#x43c;" horiz-adv-x="1583" d="M57 41q-5 47 13 98.5t47 69.5q124 -36 199.5 121t101.5 516l-117 -8q-93 65 -70 153q62 43 209 43q55 0 107 -14t104.5 -46t96.5 -79.5t81 -120t60 -162.5h18q25 102 76 191.5t119.5 149.5t149 81t163.5 -14q-35 -319 -44 -483.5t7 -260.5q11 -55 42.5 -85.5t74.5 -20.5 q23 -19 31.5 -65.5t1.5 -81.5q-37 -46 -101 -46q-31 0 -61 8.5t-61 27.5t-55 56t-36 89q-16 73 -15.5 176t9 197t29.5 272q-51 -1 -111 -98t-102.5 -217.5t-56.5 -211.5q-2 -1 -29 -17t-59 -28.5t-60 -11.5q-73 462 -241 586q-17 -427 -108.5 -627.5t-262.5 -200.5 q-56 0 -90.5 13.5t-59.5 50.5z" />
<glyph unicode="&#x43d;" horiz-adv-x="1294" d="M141 -2l15 1024q88 26 231 4l-31 -412h514q0 18 -0.5 97.5t0 114t3 92t8.5 100.5q32 26 109.5 28.5t111.5 -22.5q-35 -276 -35 -678q0 -88 18 -129.5t52 -44.5t82 10q20 -17 21 -68.5t-17 -86.5q-17 -21 -53.5 -35.5t-67.5 -14.5q-147 0 -200 107t-34 377l-510 -12 l15 -451q-29 -25 -116.5 -25t-115.5 25z" />
<glyph unicode="&#x43e;" horiz-adv-x="1185" d="M88 481q0 136 45 246t119 177t164.5 102.5t187.5 35.5q134 0 232 -39t154 -109t82 -155.5t26 -189.5q0 -262 -138.5 -420.5t-373.5 -155.5q-119 1 -209.5 32.5t-144 81t-87 119t-45.5 135t-12 140.5zM297 477q0 -65 16 -121t49 -102.5t89 -73t129 -26.5q68 0 122 20.5 t89.5 55.5t59.5 84.5t34 105.5t10 121q0 56 -14.5 108.5t-46 100.5t-89.5 77t-135 29q-129 0 -221 -103.5t-92 -275.5z" />
<glyph unicode="&#x43f;" horiz-adv-x="1259" d="M141 0q4 118 13 278t14 255.5t4 226.5t-12 256q27 31 90.5 37.5t99.5 -13.5l15 -178q93 98 174.5 142.5t171.5 44.5q77 0 137 -17.5t97.5 -48.5t63.5 -72.5t36 -89.5t14.5 -100.5t-0.5 -104.5l-10 -366q-1 -28 3 -44.5t17.5 -27.5t41.5 -10t73 14q19 -25 19.5 -68.5 t-19.5 -74.5q-47 -32 -84.5 -45.5t-98.5 -13.5q-90 0 -130 53t-35 166l14 395q4 145 -43.5 199.5t-161.5 54.5q-75 0 -151.5 -51t-139.5 -138l-6 -659q-44 -19 -103.5 -21t-103.5 21z" />
<glyph unicode="&#x440;" horiz-adv-x="1206" d="M121 -469q6 109 19 290.5t21 308t15 285t6.5 309t-8.5 292.5q53 22 95 26.5t93 -4.5l13 -135q83 77 161.5 111.5t186.5 34.5q81 0 150 -26t125 -79.5t88 -145.5t32 -214q0 -223 -89 -370t-261.5 -199t-425.5 16l-25 -488q-54 -16 -101 -18t-95 6zM348 231 q183 -73 306 -45t186 126.5t63 250.5q0 149 -59.5 224t-186.5 75q-157 0 -295 -174z" />
<glyph unicode="&#x441;" horiz-adv-x="1048" d="M88 502q0 105 27 193t72.5 150t107.5 106.5t131 66.5t143 26q85 4 153 -8t111.5 -33t77 -54t51 -63t33.5 -69q-11 -108 -168 -147q-43 182 -227 182q-130 0 -213.5 -93t-83.5 -249q0 -135 79 -225t217.5 -103.5t326.5 76.5q24 -57 26 -86.5t-16 -85.5 q-140 -104 -352 -104q-106 0 -191.5 30.5t-141 81.5t-93.5 119t-54 140t-16 149z" />
<glyph unicode="&#x442;" horiz-adv-x="1847" d="M141 0q4 118 13 278t14 255.5t4 226.5t-12 256q27 31 91.5 37.5t100.5 -13.5l17 -170q83 95 159.5 137t194.5 42q109 0 177 -53.5t81 -159.5q90 111 175 162t204 51q79 0 137 -26t91.5 -67t52.5 -100t24 -115.5t2 -122.5l-16 -376q-3 -100 123 -66q17 -17 17 -77t-15 -83 q-43 -43 -140 -43q-119 0 -156 54.5t-32 187.5l14 371q4 139 -39 200.5t-137 61.5q-76 0 -152.5 -57t-117.5 -132l-2 -34l-21 -621q-57 -30 -111.5 -31t-86.5 23l14 598q3 137 -38.5 196.5t-131.5 59.5q-173 0 -281 -205l-8 -645q-44 -19 -104.5 -21t-104.5 21z" />
<glyph unicode="&#x443;" horiz-adv-x="1183" d="M111 -285q0 96 56 182t167 152q-142 107 -164 369q-20 228 23 579q36 29 107 38t108 -3q-52 -276 -53 -474.5t57.5 -308.5t173.5 -110q49 0 88 20t71.5 66t53.5 128t28 198q17 253 17 487q42 17 117 1.5t102 -40.5q-57 -418 -57 -905q0 -119 -16 -216t-43 -164 t-67.5 -117.5t-83.5 -80t-98 -47.5t-104 -24t-107 -6q-168 0 -272 81.5t-104 194.5zM307 -217q0 -67 55 -111.5t164 -44.5q166 0 241 123.5t75 396.5q-33 -47 -73.5 -81t-80 -51t-73 -24t-64.5 -7q-45 0 -90 10q-76 -43 -115 -98.5t-39 -112.5z" />
<glyph unicode="&#x444;" horiz-adv-x="1511" d="M88 489q0 267 100 421.5t244 154.5q116 0 238 -98l10 465q49 15 84.5 18.5t58 0.5t88.5 -15l-37 -529q81 64 141.5 95.5t135.5 31.5q78 0 134 -40t84.5 -109t41 -143t12.5 -160q0 -94 -11.5 -177t-40 -162t-72 -135.5t-112 -91t-155.5 -34.5q-131 0 -192 69l-4 -543 q-49 -18 -117 -15t-105 18l19 587q-77 -106 -213 -106q-82 0 -147.5 43.5t-105 115.5t-59.5 158.5t-20 179.5zM293 520q0 -148 46.5 -233.5t143.5 -85.5q77 0 156 69l23 537q-76 47 -181 47q-52 0 -91 -33t-59 -86t-29 -107t-9 -108zM838 227q60 -49 157 -49q92 0 161 101.5 t69 226.5q0 60 -9.5 112.5t-29 96.5t-55 70t-82.5 26q-43 0 -97.5 -23t-101.5 -59z" />
<glyph unicode="&#x445;" horiz-adv-x="1118" d="M43 68q209 280 397 456l-254 357q-18 25 -63 45q10 74 40 101q25 21 60 22q52 4 86.5 -9t65.5 -61l190 -324q156 164 309 385q169 3 201 -67q-12 -32 -60.5 -92.5t-96 -112t-126 -133t-106.5 -111.5l236 -336q26 -37 63 -57.5t70 -17.5q7 -20 2 -47t-15 -51.5 t-40.5 -41.5t-75.5 -16q-47 2 -93 29t-77 73l-205 347q-240 -267 -311 -431q-61 -4 -119.5 23.5t-77.5 69.5z" />
<glyph unicode="&#x446;" horiz-adv-x="1288" d="M143 389l27 623q36 5 69 12.5t43 9.5t41.5 4t63.5 -4l-37 -532q-5 -69 2 -122.5t29.5 -99t69 -70t116.5 -24.5q72 0 150 46t135 122q-3 289 39 676q27 8 46 12t39 3.5t30 -1.5t39 -6t45 -8q-48 -421 -33 -727q3 -82 38 -120.5t117 -16.5q17 -1 20 -11t1 -30 q-98 -230 -100 -473q-26 -9 -59.5 -11t-70.5 10.5t-55 41.5q-3 82 9.5 172t43.5 149q-60 -22 -92.5 12.5t-25.5 141.5q-167 -186 -394 -186q-363 0 -346 407z" />
<glyph unicode="&#x447;" horiz-adv-x="1085" d="M82 731l14 281q41 23 83.5 27t123.5 -5l-16 -219q-16 -266 164 -266q161 0 239 147q1 15 6.5 79t10 131.5t6.5 123.5q23 6 40.5 9t28.5 4.5t28 0t25 -2.5t33 -5t39 -6q-46 -404 -33 -725q1 -28 3 -47t7.5 -39.5t15 -31.5t24 -19.5t36.5 -8t52 8.5q21 -22 16 -80t-29 -82 q-38 -26 -116 -26q-30 0 -53.5 4t-49 17t-43 35.5t-33 61.5t-22.5 93t-7 131.5t9 175.5q-115 -127 -322 -127q-134 0 -211.5 98.5t-68.5 261.5z" />
<glyph unicode="&#x448;" horiz-adv-x="1757" d="M143 375l27 637q87 24 132 25q36 2 87 -3l-37 -532q-7 -64 -3 -122.5t17 -102t45.5 -69.5t84.5 -26q73 0 142 46.5t107 123.5q0 19 3 37l26 623q8 2 29 7t31 7.5t30.5 5.5t37 4t40.5 0.5t51 -2.5l-37 -532q-6 -66 -2.5 -124t16.5 -102t46.5 -69t85.5 -25q74 0 138.5 45.5 t102.5 124.5q-3 291 39 678q60 11 91 10.5t106 -10.5q-33 -288 -33 -655q0 -134 26.5 -182t113.5 -25q21 -23 14 -81.5t-31 -84.5q-49 -22 -117 -22q-75 0 -120.5 36.5t-57.5 135.5q-39 -43 -67.5 -68.5t-70 -51.5t-92 -38t-114.5 -12q-90 0 -151.5 44t-92.5 121 q-79 -83 -159.5 -124t-198.5 -41q-66 0 -117.5 20t-84 54.5t-52.5 85t-27 107.5t-4 126z" />
<glyph unicode="&#x449;" horiz-adv-x="1794" d="M143 383l27 629q53 12 77 16t71 8.5t71 -2.5l-37 -532q-7 -64 -3 -122.5t16.5 -102t46 -69.5t86.5 -26q72 0 140.5 46.5t106.5 123.5q0 19 3 37l26 623q3 1 19 5.5t20.5 5.5t19 4.5t21.5 4.5t21.5 3t25.5 2t26.5 0.5t31.5 -0.5t34 -3l-37 -532q-7 -64 -3 -122.5 t16.5 -102t46 -69.5t86.5 -26q73 0 139 45.5t102 124.5q-2 273 41 678q67 18 197 0q-35 -306 -35 -649q0 -133 37 -185t125 -28q44 -9 27 -47q-45 -94 -74 -224t-29 -247q-96 -30 -174 33q-14 39 -3 145.5t42 181.5q-48 -21 -84.5 12t-36.5 130q-53 -57 -92.5 -89.5 t-105 -56.5t-148.5 -24q-90 0 -151.5 44t-92.5 121q-77 -82 -158.5 -123.5t-199.5 -41.5q-303 0 -285 401z" />
<glyph unicode="&#x44a;" horiz-adv-x="1032" d="M35.5 927.5q-0.5 68.5 15.5 98.5q217 -25 313.5 -19.5t208.5 46.5q27 -12 50 -64t14 -84q-45 -31 -93 -97.5t-69 -113.5q114 12 203 -9t143.5 -69t82.5 -116t28 -152q0 -67 -23.5 -129t-68.5 -114t-120 -83.5t-169 -31.5q-90 0 -166.5 40t-125 119.5t-48.5 184.5 q0 128 34.5 240.5t119.5 256.5q-36 -8 -68 -12t-66.5 -4t-54 0.5t-61.5 3.5t-58 4q-21 36 -21.5 104.5zM403.5 375q3.5 -61 16.5 -101t40.5 -63.5t55 -33t59.5 -9.5q75 0 125 43t50 137q0 103 -87 153.5t-243 18.5q-20 -84 -16.5 -145z" />
<glyph unicode="&#x44b;" horiz-adv-x="1507" d="M145 459l39 573q14 13 47.5 18t81 -2.5t90.5 -29.5l-28 -295q63 12 129.5 9.5t129.5 -12t119 -36.5t98 -64.5t66.5 -96t24.5 -130.5q0 -187 -110 -302.5t-295 -115.5q-67 0 -123.5 12.5t-111 46t-91 86.5t-55.5 139.5t-11 199.5zM350.5 395.5q2.5 -69.5 21 -122.5 t62.5 -84t109 -31q87 0 137.5 54.5t50.5 147.5q0 66 -33.5 112t-86.5 64.5t-118 22t-128 -15.5q-17 -78 -14.5 -147.5zM1077 297l29 733q89 16 231 -2l-41 -651q-7 -118 22 -164t93 -27q20 -26 32.5 -70.5t10.5 -80.5q-44 -49 -176 -49q-212 0 -201 311z" />
<glyph unicode="&#x44c;" horiz-adv-x="1099" d="M143 487l25 537q113 16 238 4l-17 -311q99 19 188 20t166.5 -19.5t134 -62t89 -111.5t32.5 -163q0 -99 -38.5 -177.5t-102.5 -126t-141 -72.5t-160 -25q-80 0 -144 15t-118 51t-88.5 93.5t-51.5 145t-12 202.5zM379 520q-23 -190 28 -278t177 -88q90 0 143 53.5t53 157.5 q0 81 -58 131t-147 54.5t-196 -30.5z" />
<glyph unicode="&#x44d;" horiz-adv-x="1124" d="M80 113q4 41 50 84t93 59q104 -94 269 -94q92 0 166 26t121.5 83.5t47.5 138.5q-173 25 -267 25t-163 -25q-33 27 -48.5 83.5t-0.5 86.5q45 29 128.5 34.5t170.5 -7.5t172 -38q0 114 -77.5 189.5t-200.5 75.5q-81 0 -157.5 -27t-131.5 -72q-56 16 -95.5 72t-19.5 108 q76 56 187.5 89.5t238.5 33.5q100 0 180.5 -27.5t134.5 -75.5t90 -115t52 -143t16 -163q0 -132 -43 -238t-118 -173t-174 -102.5t-214 -35.5q-314 0 -407 148z" />
<glyph unicode="&#x44e;" horiz-adv-x="1501" d="M141 -8l39 1009q61 28 111 28.5t110 -21.5l-32 -418l180 22q11 67 31 125.5t55 115.5t81.5 98t114.5 66t150 25q148 0 247.5 -61t142.5 -165t40 -247q-2 -181 -55.5 -318.5t-159.5 -215.5t-252 -72q-193 9 -297 131.5t-102 325.5l-187 -21l2 -407q-9 -2 -31 -6.5 t-29.5 -6t-25 -4t-26 -2.5h-23.5t-26.5 2.5t-26.5 6.5t-31 10zM711 518q-5 -72 9 -135t47 -115t95.5 -78.5t147.5 -17.5q49 5 86.5 40t59 88t32 110t12.5 116q10 292 -211 310q-127 10 -197.5 -81.5t-80.5 -236.5z" />
<glyph unicode="&#x44f;" horiz-adv-x="1116" d="M80 18q-7 30 4 75t29 69q62 -17 121.5 17.5t104 98.5t77.5 150q-123 18 -194.5 98t-71.5 209q0 149 122.5 232.5t329.5 83.5q85 0 151.5 -22t108 -57.5t68.5 -83.5t37 -96.5t8 -99.5l-14 -428q-3 -73 21 -91.5t60 -8.5q35 -103 13 -154q-60 -24 -123 -24q-118 0 -155 110 t-7 338l-168 -35q-87 -224 -187 -321.5t-227 -97.5q-67 0 -108 38zM352 729q0 -72 47 -116t142.5 -51t240.5 48q28 267 -225 267q-85 0 -145 -37.5t-60 -110.5z" />
<glyph unicode="&#x451;" horiz-adv-x="1095" d="M88 506q0 237 155.5 390t387.5 153q81 0 146.5 -14t108 -38t72.5 -52.5t45.5 -62.5t22 -62.5t6.5 -57.5q0 -83 -34.5 -145.5t-94 -97.5t-133 -55t-159 -22t-163.5 4t-155 21q2 -135 81 -218t242 -83q170 0 314 131q23 -17 36.5 -32t24 -36.5t10 -48.5t-11.5 -61 q-193 -161 -444 -139q-203 18 -330 154.5t-127 371.5zM242 1358q59 106 149 147q51 -28 85.5 -63t66.5 -86q-53 -103 -152 -148q-94 48 -149 150zM287 602q32 -8 93 -15t141.5 -7.5t150.5 9.5t119 42.5t49 85.5q0 68 -52 100.5t-139 32.5q-92 0 -163 -22.5t-111.5 -60 t-61.5 -78.5t-26 -87zM700 1354q65 106 150 147q49 -27 84 -62t67 -87q-51 -102 -151 -148q-91 47 -150 150z" />
<glyph unicode="&#x452;" horiz-adv-x="1275" d="M3 862q-1 42 10 80t26 64l225 4l17 413q31 31 89 49t119 9l-24 -469l631 12q12 -34 18.5 -73.5t1 -79t-25.5 -58.5l-635 27l-13 -258q85 66 176.5 92t200.5 26q91 0 159 -26.5t107 -68t62 -100.5t29.5 -115.5t3.5 -121.5l-4 -157q-11 -280 -150 -426.5t-403 -149.5 q-36 25 -44 102t13 115q359 -39 371 361l4 157q3 127 -52 176.5t-178 49.5q-77 0 -158.5 -30.5t-142.5 -80.5v-385q-46 -19 -106 -20.5t-103 20.5l31 829l-233 -30q-21 21 -22 63z" />
<glyph unicode="&#x453;" horiz-adv-x="851" d="M78 913q-10 -36 25.5 -80t82.5 -71q57 54 129.5 84.5t135.5 30.5q106 0 106 -74q0 -40 -24 -80t-62 -75.5t-84.5 -72t-93 -76t-84.5 -81.5t-62 -95t-24 -110q0 -118 88 -183t231 -65q227 0 402 209q-16 51 -62.5 97t-74.5 48q-118 -169 -256 -169q-115 0 -115 94 q0 33 22.5 68.5t59 69.5t80.5 70.5t88 77t80.5 82.5t59 94t22.5 105q0 106 -71 174t-214 68q-103 0 -209 -36.5t-176 -103.5zM348 1202l105 283q6 22 107 21t138 -23l-235 -303q-19 -10 -62.5 -1t-52.5 23z" />
<glyph unicode="&#x454;" horiz-adv-x="1030" d="M88 504q0 115 40.5 215.5t107.5 169.5t152.5 109.5t176.5 45.5q84 4 150 -9t107 -34t72.5 -56.5t47.5 -65t31 -70.5q-4 -70 -51.5 -107t-120.5 -45q-20 95 -64.5 144.5t-124.5 50.5q-156 3 -232.5 -84t-76.5 -236q0 -145 71.5 -241t204 -114t322.5 81q23 -29 27 -82.5 t-17 -89.5q-84 -65 -150 -84.5t-200 -19.5q-102 0 -183.5 29t-134.5 77.5t-89 116t-51 142t-15 157.5zM313 432l4 170l373 2q20 -28 14.5 -95.5t-28.5 -90.5z" />
<glyph unicode="&#x455;" horiz-adv-x="1069" d="M106 78q-15 44 10.5 110t69.5 97q65 -50 180 -88.5t203 -38.5q209 0 209 102q0 29 -34 56t-88.5 51t-120 50t-131 59.5t-120 73.5t-88.5 98t-34 126q0 132 109.5 203.5t285.5 71.5q283 0 406 -72q7 -48 -16 -104.5t-64 -67.5q-41 28 -135.5 48.5t-155.5 20.5 q-97 0 -157 -22.5t-60 -71.5q0 -37 33 -68t85 -54.5t115.5 -47.5t127 -53.5t115.5 -66t85 -93t33 -125.5q0 -46 -12 -87t-42 -81t-76.5 -69t-121 -46.5t-170.5 -17.5q-115 0 -246 29.5t-195 77.5z" />
<glyph unicode="&#x456;" horiz-adv-x="632" d="M166 172l24 848q69 14 112 13.5t114 -21.5l-29 -670q-5 -120 23 -154t122 -2q23 -23 23 -76t-23 -96q-86 -44 -184 -41q-88 3 -135.5 52.5t-46.5 146.5zM176 1356q0 68 46 114t106 46q58 0 98.5 -40.5t40.5 -91.5q0 -81 -50 -123t-104 -42q-57 0 -97 44.5t-40 92.5z" />
<glyph unicode="&#x457;" horiz-adv-x="675" d="M-10 1366q24 48 64.5 89t86.5 61q99 -48 158 -148q-24 -50 -65.5 -88.5t-88.5 -60.5q-98 44 -155 147zM160 174l24 846q70 13 111.5 12.5t114.5 -20.5l-31 -678q-5 -117 25 -148.5t122 0.5q23 -23 23 -76t-23 -96q-80 -44 -184 -41q-87 3 -136 52t-46 149zM354 1366 q24 48 65 89t87 61q99 -48 158 -148q-48 -101 -156 -149q-97 46 -154 147z" />
<glyph unicode="&#x458;" horiz-adv-x="743" d="M-51 -219q0 303 409 455q11 401 -20 782q32 19 115.5 20t111.5 -16q-29 -935 -39 -1135q-4 -72 -13 -125.5t-28.5 -102.5t-50.5 -80t-79 -49.5t-113 -18.5q-44 0 -84 7.5t-79 27t-67 49t-45.5 77.5t-17.5 109zM139 -184q0 -54 23 -80.5t63 -26.5q65 0 92 67.5t33 246.5 q0 13 1 37t1 36q-94 -57 -153.5 -137t-59.5 -143zM326 1356q0 68 45.5 114t103.5 46q57 0 97 -41t40 -89q0 -82 -49 -124.5t-102 -42.5q-55 0 -95 44.5t-40 92.5z" />
<glyph unicode="&#x459;" horiz-adv-x="1701" d="M49 109q15 78 47 108q130 -38 203 114.5t104 528.5l-161 -31q-30 30 -31.5 96.5t37.5 98.5h528q81 0 137 -13t85.5 -37t45 -56.5t16 -72t-0.5 -83.5l-4 -66q99 15 172 15q176 0 275.5 -83.5t99.5 -242.5q0 -179 -112.5 -290t-301.5 -111t-267.5 113t-72.5 380l8 223 q3 136 -84 142l-209 14q-51 -876 -375 -876q-15 0 -27 1t-20.5 2t-20.5 4.5t-17.5 5.5t-22.5 8t-25 9q-21 21 -6 99zM1044 502q-9 -194 25.5 -271t132.5 -77q88 0 135 56.5t47 149.5q0 166 -194 166q-58 0 -146 -24z" />
<glyph unicode="&#x45a;" horiz-adv-x="1699" d="M141 0l15 1022q88 33 231 4l-31 -412h467q0 18 -0.5 96.5t0 113t3 92.5t8.5 102q33 27 110.5 29t110.5 -23q-8 -165 -17 -305q86 22 154 22q206 0 306.5 -95.5t100.5 -244.5q0 -78 -27 -151.5t-79 -135.5t-137.5 -99.5t-192.5 -37.5q-35 0 -66.5 4t-68.5 17t-67 34 t-59 58t-47.5 86.5t-28 122.5t-5.5 162l-463 -12l15 -449q-30 -25 -117 -25.5t-115 25.5zM1022 526q-12 -208 25.5 -290t148.5 -82q88 0 136 53t48 149q0 95 -55 147t-168 52q-72 0 -135 -29z" />
<glyph unicode="&#x45b;" horiz-adv-x="1265" d="M-28.5 1219.5q-6.5 66.5 20.5 83.5l203 4l4 114q28 33 89.5 49.5t121.5 6.5l-13 -164l273 6q29 -11 27 -75.5t-25 -86.5l-285 -6l-16 -256q91 83 168.5 118.5t175.5 35.5q351 0 334 -435l-17 -385q0 -18 5.5 -30.5t14.5 -19t23.5 -8.5t26.5 -2t30.5 3t28 5.5t25.5 6.5 q19 -24 20 -68.5t-22 -84.5q-68 -54 -201 -54q-77 0 -126 44.5t-46 132.5q1 28 11.5 180.5t15.5 267.5q6 133 -38.5 189.5t-150.5 56.5q-73 0 -139.5 -38.5t-144.5 -117.5l-11 -692q-42 -19 -104 -21t-107 21l45 1147l-180 -4q-30 10 -36.5 76.5z" />
<glyph unicode="&#x45c;" horiz-adv-x="1101" d="M141 8l52 985q22 34 101.5 50t108.5 -7l-36 -440l116 25l297 407q53 14 137 2t105 -43l-410 -461q74 -172 159 -264t157 -92q62 0 110 35q30 -15 39.5 -67t-6.5 -103q-50 -41 -91.5 -53.5t-96.5 -12.5q-38 0 -73 11.5t-65 30.5t-61 53.5t-56.5 70t-57.5 91.5t-58 106 t-63 125l-91 -4l2 -435q-24 -31 -106 -35.5t-113 25.5zM463 1202l104 283q6 22 107.5 21t138.5 -23l-235 -303q-19 -10 -62.5 -1t-52.5 23z" />
<glyph unicode="&#x45e;" horiz-adv-x="1183" d="M111 -285q0 96 56 182t167 152q-142 107 -164 369q-20 228 23 579q36 29 107 38t108 -3q-52 -276 -53 -474.5t57.5 -308.5t173.5 -110q49 0 88 20t71.5 66t53.5 128t28 198q17 253 17 487q42 17 117 1.5t102 -40.5q-57 -418 -57 -905q0 -119 -16 -216t-43 -164 t-67.5 -117.5t-83.5 -80t-98 -47.5t-104 -24t-107 -6q-168 0 -272 81.5t-104 194.5zM307 -217q0 -67 55 -111.5t164 -44.5q166 0 241 123.5t75 396.5q-33 -47 -73.5 -81t-80 -51t-73 -24t-64.5 -7q-45 0 -90 10q-76 -43 -115 -98.5t-39 -112.5zM360.5 1266.5 q-30.5 69.5 12.5 169.5q15 16 74.5 14t72.5 -20q-28 -154 119 -154q89 0 152 35t118 96q27 -7 50 -22t34 -27t27.5 -33t21.5 -27q-142 -174 -391 -174q-105 0 -182.5 36.5t-108 106z" />
<glyph unicode="&#x45f;" horiz-adv-x="1202" d="M137 0l4 1022q72 23 112 27.5t114 -0.5l-37 -842l495 -8l31 819q89 17 118 16q38 -2 109 -18l-65 -1028l-365 6l11 -256q-8 -20 -60 -27t-104.5 4t-59.5 37l25 244z" />
<glyph unicode="&#x490;" horiz-adv-x="980" d="M129 -18l25 1460l622 14l21 170q23 23 92.5 31.5t99.5 -12.5q19 -78 15.5 -209.5t-35.5 -216.5l-604 10l22 -1215q-64 -31 -122 -38t-136 6z" />
<glyph unicode="&#x491;" horiz-adv-x="884" d="M129 10l25 721q5 106 44 174.5t105 98t156.5 36.5t197.5 -10l72 152q31 17 74 6.5t51 -31.5q-1 -70 -20 -173.5t-41 -160.5q-184 27 -214 30q-128 9 -181 -44q-64 -64 -64 -246l6 -543q-18 -23 -65 -32t-90.5 -2t-55.5 24z" />
<glyph unicode="&#x2000;" horiz-adv-x="945" />
<glyph unicode="&#x2001;" horiz-adv-x="1890" />
<glyph unicode="&#x2002;" horiz-adv-x="945" />
<glyph unicode="&#x2003;" horiz-adv-x="1890" />
<glyph unicode="&#x2004;" horiz-adv-x="630" />
<glyph unicode="&#x2005;" horiz-adv-x="472" />
<glyph unicode="&#x2006;" horiz-adv-x="315" />
<glyph unicode="&#x2007;" horiz-adv-x="315" />
<glyph unicode="&#x2008;" horiz-adv-x="236" />
<glyph unicode="&#x2009;" horiz-adv-x="378" />
<glyph unicode="&#x200a;" horiz-adv-x="105" />
<glyph unicode="&#x2010;" horiz-adv-x="747" d="M160 537.5q-1 44.5 8 95.5l410 16q11 -46 10 -90.5t-21 -95.5l-389 -21q-17 51 -18 95.5z" />
<glyph unicode="&#x2011;" horiz-adv-x="747" d="M160 537.5q-1 44.5 8 95.5l410 16q11 -46 10 -90.5t-21 -95.5l-389 -21q-17 51 -18 95.5z" />
<glyph unicode="&#x2012;" horiz-adv-x="747" d="M160 537.5q-1 44.5 8 95.5l410 16q11 -46 10 -90.5t-21 -95.5l-389 -21q-17 51 -18 95.5z" />
<glyph unicode="&#x2013;" horiz-adv-x="1140" d="M84 723.5q-1 44.5 10 97.5l950 17q13 -52 11.5 -94t-21.5 -95l-930 -20q-19 50 -20 94.5z" />
<glyph unicode="&#x2014;" horiz-adv-x="1505" d="M42 580q-1 44 9 98l1401 16q11 -48 10 -92.5t-20 -95.5l-1381 -21q-18 51 -19 95z" />
<glyph unicode="&#x2018;" horiz-adv-x="471" d="M86 1219q0 97 53.5 204t145.5 183q33 10 65.5 -9t38.5 -49q-101 -72 -145 -227q46 8 81 -5.5t53.5 -41.5t27 -57.5t8.5 -57.5q0 -56 -48 -97.5t-112 -41.5t-116 53t-52 146z" />
<glyph unicode="&#x2019;" horiz-adv-x="471" d="M92 1354q0 55 48 96t110 41q63 0 116.5 -54.5t53.5 -144.5q0 -98 -53 -203t-144 -184q-41 -15 -73.5 3.5t-32.5 54.5q101 73 145 227q-47 -7 -82 6.5t-53 41t-26.5 56.5t-8.5 60z" />
<glyph unicode="&#x201a;" horiz-adv-x="512" d="M88 168q0 58 47 98.5t111 40.5q63 0 116.5 -54.5t53.5 -146.5q0 -96 -54 -202t-145 -185q-34 -9 -67.5 12t-36.5 48q101 73 145 227q-47 -8 -82 5.5t-53 41.5t-26.5 57t-8.5 58z" />
<glyph unicode="&#x201c;" horiz-adv-x="960" d="M88 1219q0 99 55 205t144 182q37 10 69.5 -9.5t34.5 -48.5q-101 -72 -145 -227q48 8 83 -5.5t53 -41t26 -56.5t8 -59q0 -59 -47.5 -99t-108.5 -40q-64 0 -118 54t-54 145zM559 1221q0 96 56 203.5t143 181.5q43 11 73 -6t31 -52q-101 -72 -145 -227q47 8 82 -5.5t53 -41 t26.5 -57t8.5 -58.5q0 -57 -47.5 -98t-110.5 -41t-116.5 54.5t-53.5 146.5z" />
<glyph unicode="&#x201d;" horiz-adv-x="956" d="M92 1350q0 57 49.5 97t108.5 40q63 0 116.5 -53.5t53.5 -147.5q0 -97 -53 -203t-144 -184q-41 -6 -72 10t-34 49q102 75 145 228q-47 -8 -82 5.5t-53 41.5t-26.5 57.5t-8.5 59.5zM565 1348q0 56 46 97.5t110 41.5t117 -54t53 -147q0 -96 -53 -201t-144 -186 q-38 -8 -72 10.5t-34 48.5q101 72 145 228q-48 -8 -83 5.5t-52 41.5t-25 56.5t-8 58.5z" />
<glyph unicode="&#x201e;" horiz-adv-x="925" d="M88 168q0 57 47.5 98t110.5 41t116.5 -54.5t53.5 -146.5q0 -96 -54.5 -202t-144.5 -185q-31 -9 -66 12t-38 48q101 73 145 227q-47 -8 -82 5t-53 40.5t-26.5 57t-8.5 59.5zM559 168q0 57 46.5 98t109.5 41q65 0 118.5 -54.5t53.5 -146.5q0 -96 -54.5 -203t-144.5 -184 q-34 -9 -68 12t-36 48q98 70 145 227q-48 -8 -83 5t-53 41t-26 57t-8 59z" />
<glyph unicode="&#x2026;" horiz-adv-x="1980" d="M129 150q0 76 58.5 132t140.5 56t140 -56t58 -132t-58 -132.5t-140 -56.5t-140.5 56.5t-58.5 132.5zM780 150q0 76 59 132t140 56q82 0 140.5 -56t58.5 -132t-58.5 -132.5t-140.5 -56.5q-81 0 -140 56.5t-59 132.5zM1450 150q0 76 59 132t140 56q82 0 140 -56t58 -132 t-58 -132.5t-140 -56.5q-81 0 -140 56.5t-59 132.5z" />
<glyph unicode="&#x202f;" horiz-adv-x="378" />
<glyph unicode="&#x2039;" horiz-adv-x="684" d="M43 539l403 487q53 -13 114 -58t58 -91l-378 -338l356 -324q-3 -45 -67 -97t-119 -57z" />
<glyph unicode="&#x203a;" horiz-adv-x="686" d="M66 213l380 336l-356 323q1 46 66.5 98.5t119.5 55.5l365 -477l-401 -488q-53 13 -115 60t-59 92z" />
<glyph unicode="&#x205f;" horiz-adv-x="472" />
<glyph unicode="&#x20ac;" horiz-adv-x="1200" d="M63 440q-10 41 1 95.5t36 95.5l127 2q-2 67 9 164l-158 -4q-5 41 9.5 96t41.5 92l152 2q96 236 316.5 355t555.5 110q16 -47 -8 -115.5t-62 -109.5q-176 22 -316 -46t-232 -194h444q11 -53 -16.5 -99t-65.5 -69l-446 -12q-14 -76 -7 -166l416 10q18 -95 -51 -188 l-301 -10q78 -135 215 -211t295 -70q11 -27 2.5 -97t-41.5 -114q-292 4 -475.5 133t-247.5 350h-193z" />
<glyph unicode="&#x2122;" horiz-adv-x="2086" d="M54.5 1331q-3.5 31 0 55t11.5 60l768 -6q7 -52 6.5 -84.5t-9.5 -87.5l-292 10l-7 -746q-47 -8 -69 -10.5t-56 -1t-69 11.5l35 754l-301 -14q-14 28 -17.5 59zM848 545l166 887q27 8 56.5 11t45 2.5t56 -4.5t53.5 -5l188 -408l21 -74h8l12 66l197 422q89 16 204 2 l148 -895q-41 -32 -95 -38.5t-106 1.5l-82 625v104h-16l-27 -123l-186 -393q-43 -20 -139 -20l-189 477v-2l-8 90h-12l-17 -99l-77 -641q-61 -11 -105.5 -9.5t-95.5 24.5z" />
<glyph unicode="&#x25fc;" horiz-adv-x="1054" d="M0 0v1055h1055v-1055h-1055z" />
</font>
</defs>
</svg>
