<?xml version="1.0" encoding="utf-8"?>
<!-- Generated by IcoMoon.io -->
<!DOCTYPE svg PUBLIC "-//W3C//DTD SVG 1.1//EN" "http://www.w3.org/Graphics/SVG/1.1/DTD/svg11.dtd">
<svg version="1.1" xmlns="http://www.w3.org/2000/svg" xmlns:xlink="http://www.w3.org/1999/xlink" width="32" height="32" viewBox="0 0 32 32">
<g>
</g>
	<path d="M9.449 29.553h13.101c2.865 0 5.196-2.331 5.196-5.196v-13.101c0-2.213-1.394-4.102-3.347-4.85v1.483c0 0.124-0.009 0.247-0.023 0.367-0.036 0.316-0.118 0.618-0.24 0.9-0.492 1.136-1.622 1.933-2.937 1.933-1.513 0-2.78-1.056-3.113-2.469-0.028-0.119-0.051-0.24-0.065-0.364-0.014-0.121-0.022-0.243-0.022-0.367v-1.829h-4v1.829c0 0.124-0.009 0.247-0.022 0.367-0.014 0.124-0.037 0.244-0.065 0.364-0.332 1.413-1.6 2.469-3.113 2.469-1.314 0-2.446-0.797-2.938-1.933-0.121-0.281-0.203-0.583-0.239-0.9-0.014-0.121-0.023-0.243-0.023-0.367v-1.483c-1.953 0.748-3.347 2.637-3.347 4.85v13.101c0 2.865 2.332 5.196 5.196 5.196zM6.813 15.902h18.374v8.454c0 1.454-1.183 2.636-2.636 2.636h-13.101c-1.454 0-2.636-1.182-2.636-2.636v-8.454z" fill="#fff"></path>
	<path d="M9.751 8.619c0.231 0.331 0.614 0.549 1.049 0.549s0.818-0.218 1.049-0.549c0.076-0.109 0.132-0.233 0.171-0.364 0.036-0.117 0.060-0.239 0.060-0.367v-4.16c0-0.707-0.573-1.28-1.28-1.28s-1.28 0.573-1.28 1.28v4.16c0 0.129 0.025 0.25 0.060 0.367 0.039 0.131 0.095 0.254 0.171 0.364z" fill="#fff"></path>
	<path d="M20.151 8.619c0.231 0.331 0.614 0.549 1.049 0.549s0.817-0.218 1.049-0.549c0.076-0.109 0.132-0.233 0.171-0.364 0.035-0.117 0.060-0.239 0.060-0.367v-4.16c0-0.707-0.573-1.28-1.28-1.28s-1.28 0.573-1.28 1.28v4.16c0 0.129 0.024 0.25 0.060 0.367 0.039 0.131 0.094 0.254 0.171 0.364z" fill="#fff"></path>
</svg>
